<svg aria-hidden="true" style="position: absolute; width: 0; height: 0; overflow: hidden;" version="1.1" xmlns="http://www.w3.org/2000/svg" xmlns:xlink="http://www.w3.org/1999/xlink">
<defs>
<symbol id="icon-resize-100" viewBox="0 0 20 20">
<path d="M4.1 14.1l-3.1 2.9 2 2 2.9-3.1 2.1 2.1v-6h-6l2.1 2.1zM19 3l-2-2-2.9 3.1-2.1-2.1v6h6l-2.1-2.1 3.1-2.9z"></path>
</symbol>
<symbol id="icon-resize-full-screen" viewBox="0 0 20 20">
<path d="M6.987 10.987l-2.931 3.031-2.056-2.429v6.411h6.387l-2.43-2.081 3.030-2.932-2-2zM11.613 2l2.43 2.081-3.030 2.932 2 2 2.931-3.031 2.056 2.429v-6.411h-6.387z"></path>
</symbol>
<symbol id="icon-save" viewBox="0 0 20 20">
<path d="M15.173 2h-11.173c-1.101 0-2 0.9-2 2v12c0 1.1 0.899 2 2 2h12c1.101 0 2-0.9 2-2v-10.873l-2.827-3.127zM14 8c0 0.549-0.45 1-1 1h-6c-0.55 0-1-0.451-1-1v-5h8v5zM13 4h-2v4h2v-4z"></path>
</symbol>
<symbol id="icon-camera" viewBox="0 0 20 20">
<path d="M10 8c-1.657 0-3 1.344-3 3s1.343 3 3 3c1.656 0 3-1.344 3-3s-1.344-3-3-3zM18 5h-2.4c-0.33 0-0.686-0.256-0.789-0.57l-0.621-1.861c-0.105-0.313-0.459-0.569-0.79-0.569h-6.8c-0.33 0-0.686 0.256-0.789 0.568l-0.622 1.862c-0.104 0.314-0.459 0.57-0.789 0.57h-2.4c-1.1 0-2 0.9-2 2v9c0 1.1 0.9 2 2 2h16c1.1 0 2-0.9 2-2v-9c0-1.1-0.9-2-2-2zM10 16c-2.762 0-5-2.238-5-5s2.238-5 5-5c2.761 0 5 2.238 5 5s-2.239 5-5 5zM17.5 8.2c-0.387 0-0.7-0.314-0.7-0.701 0-0.385 0.313-0.7 0.7-0.7s0.7 0.314 0.7 0.7c0 0.387-0.313 0.701-0.7 0.701z"></path>
</symbol>
<symbol id="icon-folder-images" viewBox="0 0 20 20">
<path d="M18.405 2.799c-0.112-0.44-0.656-0.799-1.21-0.799h-14.39c-0.555 0-1.099 0.359-1.21 0.799l-0.201 1.201h17.211l-0.2-1.201zM19.412 5h-18.825c-0.342 0-0.609 0.294-0.577 0.635l0.923 11.669c0.038 0.394 0.37 0.696 0.766 0.696h16.601c0.397 0 0.728-0.302 0.766-0.696l0.923-11.669c0.033-0.341-0.235-0.635-0.577-0.635zM12.438 8.375c0.518 0 0.938 0.42 0.938 0.938s-0.42 0.938-0.938 0.938-0.938-0.421-0.938-0.939c0-0.517 0.42-0.937 0.938-0.937zM5.5 14l2.486-5.714 2.827 4.576 2.424-1.204 1.263 2.342h-9z"></path>
</symbol>
<symbol id="icon-image-inverted" viewBox="0 0 20 20">
<path d="M18 3h-16c-0.553 0-1 0.447-1 1v12c0 0.552 0.447 1 1 1h16c0.553 0 1-0.448 1-1v-12c0-0.552-0.447-1-1-1zM13.25 6.5c0.69 0 1.25 0.56 1.25 1.25s-0.56 1.25-1.25 1.25-1.25-0.56-1.25-1.25 0.56-1.25 1.25-1.25zM4 14l3.314-7.619 3.769 6.102 3.231-1.605 1.686 3.122h-12z"></path>
</symbol>
<symbol id="icon-image" viewBox="0 0 20 20">
<path d="M19 2h-18c-0.553 0-1 0.447-1 1v14c0 0.552 0.447 1 1 1h18c0.553 0 1-0.448 1-1v-14c0-0.552-0.447-1-1-1zM18 16h-16v-12h16v12zM14.315 10.877l-3.231 1.605-3.77-6.101-3.314 7.619h12l-1.685-3.123zM13.25 9c0.69 0 1.25-0.56 1.25-1.25s-0.56-1.25-1.25-1.25-1.25 0.56-1.25 1.25 0.56 1.25 1.25 1.25z"></path>
</symbol>
<symbol id="icon-images" viewBox="0 0 20 20">
<path d="M17.125 6.17l-2.046-5.635c-0.151-0.416-0.595-0.637-0.989-0.492l-13.598 4.963c-0.394 0.144-0.593 0.597-0.441 1.013l2.156 5.941v-3.183c0-1.438 1.148-2.607 2.56-2.607h3.593l4.285-3.008 2.479 3.008h2.001zM19.238 8h-14.471c-0.42 0-0.762 0.334-0.762 0.777v9.42c0.001 0.444 0.343 0.803 0.762 0.803h14.471c0.42 0 0.762-0.359 0.762-0.803v-9.42c0-0.443-0.342-0.777-0.762-0.777zM18 17h-12v-2l1.984-4.018 2.768 3.436 2.598-2.662 3.338-1.205 1.312 3.449v3z"></path>
</symbol>
<symbol id="icon-error" viewBox="0 0 24 24">
<path d="M12.984 12.984v-6h-1.969v6h1.969zM12.984 17.016v-2.016h-1.969v2.016h1.969zM12 2.016q4.125 0 7.055 2.93t2.93 7.055-2.93 7.055-7.055 2.93-7.055-2.93-2.93-7.055 2.93-7.055 7.055-2.93z"></path>
</symbol>
<symbol id="icon-error_outline" viewBox="0 0 24 24">
<path d="M12 20.016q3.281 0 5.648-2.367t2.367-5.648-2.367-5.648-5.648-2.367-5.648 2.367-2.367 5.648 2.367 5.648 5.648 2.367zM12 2.016q4.125 0 7.055 2.93t2.93 7.055-2.93 7.055-7.055 2.93-7.055-2.93-2.93-7.055 2.93-7.055 7.055-2.93zM11.016 6.984h1.969v6h-1.969v-6zM11.016 15h1.969v2.016h-1.969v-2.016z"></path>
</symbol>
<symbol id="icon-warning" viewBox="0 0 24 24">
<path d="M12.984 14.016v-4.031h-1.969v4.031h1.969zM12.984 18v-2.016h-1.969v2.016h1.969zM0.984 21l11.016-18.984 11.016 18.984h-22.031z"></path>
</symbol>
<symbol id="icon-control_camera" viewBox="0 0 24 24">
<path d="M9 12q0-1.219 0.891-2.109t2.109-0.891 2.109 0.891 0.891 2.109-0.891 2.109-2.109 0.891-2.109-0.891-0.891-2.109zM5.531 8.438l1.781 1.781-1.781 1.781 1.781 1.781-1.781 1.781-3.516-3.563zM8.438 18.469l1.781-1.781 1.781 1.781 1.781-1.781 1.781 1.781-3.563 3.516zM18.469 15.563l-1.781-1.781 1.781-1.781-1.781-1.781 1.781-1.781 3.516 3.563zM15.563 5.531l-1.781 1.781-1.781-1.781-1.781 1.781-1.781-1.781 3.563-3.516z"></path>
</symbol>
<symbol id="icon-content_cut" viewBox="0 0 24 24">
<path d="M18.984 3h3v0.984l-6.984 7.031-2.016-2.016zM12 12.516q0.516 0 0.516-0.516t-0.516-0.516-0.516 0.516 0.516 0.516zM6 20.016q0.797 0 1.406-0.586t0.609-1.43-0.609-1.43-1.406-0.586-1.406 0.586-0.609 1.43 0.609 1.43 1.406 0.586zM6 8.016q0.797 0 1.406-0.586t0.609-1.43-0.609-1.43-1.406-0.586-1.406 0.586-0.609 1.43 0.609 1.43 1.406 0.586zM9.656 7.641l12.328 12.375v0.984h-3l-6.984-6.984-2.344 2.344q0.328 0.703 0.328 1.641 0 1.641-1.172 2.813t-2.813 1.172-2.813-1.172-1.172-2.813 1.172-2.813 2.813-1.172q0.938 0 1.641 0.328l2.344-2.344-2.344-2.344q-0.703 0.328-1.641 0.328-1.641 0-2.813-1.172t-1.172-2.813 1.172-2.813 2.813-1.172 2.813 1.172 1.172 2.813q0 0.938-0.328 1.641z"></path>
</symbol>
<symbol id="icon-save_alt" viewBox="0 0 24 24">
<path d="M12.984 12.656l2.625-2.578 1.406 1.406-5.016 5.016-5.016-5.016 1.406-1.406 2.625 2.578v-9.656h1.969v9.656zM18.984 12h2.016v6.984q0 0.797-0.609 1.406t-1.406 0.609h-13.969q-0.797 0-1.406-0.609t-0.609-1.406v-6.984h2.016v6.984h13.969v-6.984z"></path>
</symbol>
<symbol id="icon-insert_photo" viewBox="0 0 24 24">
<path d="M8.484 13.5l-3.469 4.5h13.969l-4.5-6-3.469 4.5zM21 18.984q0 0.797-0.609 1.406t-1.406 0.609h-13.969q-0.797 0-1.406-0.609t-0.609-1.406v-13.969q0-0.797 0.609-1.406t1.406-0.609h13.969q0.797 0 1.406 0.609t0.609 1.406v13.969z"></path>
</symbol>
<symbol id="icon-format_shapes" viewBox="0 0 24 24">
<path d="M10.688 12.75h2.625l-1.313-3.844zM13.734 14.016h-3.516l-0.703 1.969h-1.641l3.422-9h1.406l3.375 9h-1.594zM18.984 5.016h2.016v-2.016h-2.016v2.016zM21 21v-2.016h-2.016v2.016h2.016zM17.016 18.984v-1.969h1.969v-10.031h-1.969v-1.969h-10.031v1.969h-1.969v10.031h1.969v1.969h10.031zM5.016 21v-2.016h-2.016v2.016h2.016zM3 3v2.016h2.016v-2.016h-2.016zM23.016 6.984h-2.016v10.031h2.016v6h-6v-2.016h-10.031v2.016h-6v-6h2.016v-10.031h-2.016v-6h6v2.016h10.031v-2.016h6v6z"></path>
</symbol>
<symbol id="icon-keyboard_arrow_down" viewBox="0 0 24 24">
<path d="M7.406 8.578l4.594 4.594 4.594-4.594 1.406 1.406-6 6-6-6z"></path>
</symbol>
<symbol id="icon-keyboard_arrow_left" viewBox="0 0 24 24">
<path d="M15.422 16.594l-1.406 1.406-6-6 6-6 1.406 1.406-4.594 4.594z"></path>
</symbol>
<symbol id="icon-keyboard_arrow_right" viewBox="0 0 24 24">
<path d="M8.578 16.594l4.594-4.594-4.594-4.594 1.406-1.406 6 6-6 6z"></path>
</symbol>
<symbol id="icon-keyboard_arrow_up" viewBox="0 0 24 24">
<path d="M7.406 15.422l-1.406-1.406 6-6 6 6-1.406 1.406-4.594-4.594z"></path>
</symbol>
<symbol id="icon-camera_alt" viewBox="0 0 24 24">
<path d="M12 17.016q2.063 0 3.539-1.477t1.477-3.539-1.477-3.539-3.539-1.477-3.539 1.477-1.477 3.539 1.477 3.539 3.539 1.477zM9 2.016h6l1.828 1.969h3.188q0.797 0 1.383 0.609t0.586 1.406v12q0 0.797-0.586 1.406t-1.383 0.609h-16.031q-0.797 0-1.383-0.609t-0.586-1.406v-12q0-0.797 0.586-1.406t1.383-0.609h3.188zM8.813 12q0-1.313 0.938-2.25t2.25-0.938 2.25 0.938 0.938 2.25-0.938 2.25-2.25 0.938-2.25-0.938-0.938-2.25z"></path>
</symbol>
<symbol id="icon-camera_front" viewBox="0 0 24 24">
<path d="M6.984 2.016v10.5q0-1.125 1.711-1.828t3.305-0.703 3.305 0.703 1.711 1.828v-10.5h-10.031zM17.016 0q0.797 0 1.383 0.609t0.586 1.406v13.969q0 0.797-0.586 1.406t-1.383 0.609h-7.031l3 3-3 3v-2.016h-4.969v-1.969h4.969v-2.016h-3q-0.797 0-1.383-0.609t-0.586-1.406v-13.969q0-0.797 0.586-1.406t1.383-0.609h10.031zM12 8.016q-0.797 0-1.383-0.609t-0.586-1.406 0.586-1.406 1.383-0.609 1.406 0.609 0.609 1.406-0.609 1.406-1.406 0.609zM14.016 20.016h4.969v1.969h-4.969v-1.969z"></path>
</symbol>
<symbol id="icon-camera_rear" viewBox="0 0 24 24">
<path d="M12 6q0.797 0 1.383-0.609t0.586-1.406-0.586-1.383-1.383-0.586-1.406 0.586-0.609 1.383 0.586 1.406 1.43 0.609zM17.016 0q0.797 0 1.383 0.609t0.586 1.406v13.969q0 0.797-0.586 1.406t-1.383 0.609h-7.031l3 3-3 3v-2.016h-4.969v-1.969h4.969v-2.016h-3q-0.797 0-1.383-0.609t-0.586-1.406v-13.969q0-0.797 0.586-1.406t1.383-0.609h10.031zM14.016 20.016h4.969v1.969h-4.969v-1.969z"></path>
</symbol>
<symbol id="icon-center_focus_strong" viewBox="0 0 24 24">
<path d="M18.984 18.984v-3.984h2.016v3.984q0 0.797-0.609 1.406t-1.406 0.609h-3.984v-2.016h3.984zM18.984 3q0.797 0 1.406 0.609t0.609 1.406v3.984h-2.016v-3.984h-3.984v-2.016h3.984zM5.016 5.016v3.984h-2.016v-3.984q0-0.797 0.609-1.406t1.406-0.609h3.984v2.016h-3.984zM5.016 15v3.984h3.984v2.016h-3.984q-0.797 0-1.406-0.609t-0.609-1.406v-3.984h2.016zM12 8.016q1.641 0 2.813 1.172t1.172 2.813-1.172 2.813-2.813 1.172-2.813-1.172-1.172-2.813 1.172-2.813 2.813-1.172z"></path>
</symbol>
<symbol id="icon-center_focus_weak" viewBox="0 0 24 24">
<path d="M12 14.016q0.797 0 1.406-0.609t0.609-1.406-0.609-1.406-1.406-0.609-1.406 0.609-0.609 1.406 0.609 1.406 1.406 0.609zM12 8.016q1.641 0 2.813 1.172t1.172 2.813-1.172 2.813-2.813 1.172-2.813-1.172-1.172-2.813 1.172-2.813 2.813-1.172zM18.984 18.984v-3.984h2.016v3.984q0 0.797-0.609 1.406t-1.406 0.609h-3.984v-2.016h3.984zM18.984 3q0.797 0 1.406 0.609t0.609 1.406v3.984h-2.016v-3.984h-3.984v-2.016h3.984zM5.016 5.016v3.984h-2.016v-3.984q0-0.797 0.609-1.406t1.406-0.609h3.984v2.016h-3.984zM5.016 15v3.984h3.984v2.016h-3.984q-0.797 0-1.406-0.609t-0.609-1.406v-3.984h2.016z"></path>
</symbol>
<symbol id="icon-collections" viewBox="0 0 24 24">
<path d="M2.016 6h1.969v14.016h14.016v1.969h-14.016q-0.797 0-1.383-0.586t-0.586-1.383v-14.016zM11.016 12l-3 3.984h12l-4.031-4.969-2.953 3.703zM21.984 15.984q0 0.797-0.586 1.406t-1.383 0.609h-12q-0.797 0-1.406-0.609t-0.609-1.406v-12q0-0.797 0.609-1.383t1.406-0.586h12q0.797 0 1.383 0.586t0.586 1.383v12z"></path>
</symbol>
<symbol id="icon-color_lens" viewBox="0 0 24 24">
<path d="M17.484 12q0.609 0 1.055-0.422t0.445-1.078-0.445-1.078-1.055-0.422-1.055 0.422-0.445 1.078 0.445 1.078 1.055 0.422zM14.484 8.016q0.609 0 1.055-0.445t0.445-1.055-0.445-1.055-1.055-0.445-1.055 0.445-0.445 1.055 0.445 1.055 1.055 0.445zM9.516 8.016q0.609 0 1.055-0.445t0.445-1.055-0.445-1.055-1.055-0.445-1.055 0.445-0.445 1.055 0.445 1.055 1.055 0.445zM6.516 12q0.609 0 1.055-0.422t0.445-1.078-0.445-1.078-1.055-0.422-1.055 0.422-0.445 1.078 0.445 1.078 1.055 0.422zM12 3q3.703 0 6.352 2.344t2.648 5.672q0 2.063-1.477 3.516t-3.539 1.453h-1.734q-0.656 0-1.078 0.445t-0.422 1.055q0 0.516 0.375 0.984t0.375 1.031q0 0.656-0.422 1.078t-1.078 0.422q-3.75 0-6.375-2.625t-2.625-6.375 2.625-6.375 6.375-2.625z"></path>
</symbol>
<symbol id="icon-compare" viewBox="0 0 24 24">
<path d="M18.984 3q0.797 0 1.406 0.609t0.609 1.406v13.969q0 0.797-0.609 1.406t-1.406 0.609h-4.969v-9l4.969 6v-12.984h-4.969v-2.016h4.969zM9.984 18v-6l-4.969 6h4.969zM9.984 3v-2.016h2.016v22.031h-2.016v-2.016h-4.969q-0.797 0-1.406-0.609t-0.609-1.406v-13.969q0-0.797 0.609-1.406t1.406-0.609h4.969z"></path>
</symbol>
<symbol id="icon-crop_16_9" viewBox="0 0 24 24">
<path d="M18.984 15.984v-7.969h-13.969v7.969h13.969zM18.984 6q0.797 0 1.406 0.609t0.609 1.406v7.969q0 0.797-0.609 1.406t-1.406 0.609h-13.969q-0.797 0-1.406-0.609t-0.609-1.406v-7.969q0-0.797 0.609-1.406t1.406-0.609h13.969z"></path>
</symbol>
<symbol id="icon-crop_3_2" viewBox="0 0 24 24">
<path d="M18.984 18v-12h-13.969v12h13.969zM18.984 3.984q0.797 0 1.406 0.609t0.609 1.406v12q0 0.797-0.609 1.406t-1.406 0.609h-13.969q-0.797 0-1.406-0.609t-0.609-1.406v-12q0-0.797 0.609-1.406t1.406-0.609h13.969z"></path>
</symbol>
<symbol id="icon-crop" viewBox="0 0 24 24">
<path d="M6.984 17.016h16.031v1.969h-4.031v4.031h-1.969v-4.031h-10.031q-0.797 0-1.383-0.586t-0.586-1.383v-10.031h-4.031v-1.969h4.031v-4.031h1.969v16.031zM17.016 15v-8.016h-8.016v-1.969h8.016q0.797 0 1.383 0.586t0.586 1.383v8.016h-1.969z"></path>
</symbol>
<symbol id="icon-crop_5_4" viewBox="0 0 24 24">
<path d="M18.984 17.016v-10.031h-13.969v10.031h13.969zM18.984 5.016q0.797 0 1.406 0.586t0.609 1.383v10.031q0 0.797-0.609 1.383t-1.406 0.586h-13.969q-0.797 0-1.406-0.586t-0.609-1.383v-10.031q0-0.797 0.609-1.383t1.406-0.586h13.969z"></path>
</symbol>
<symbol id="icon-crop_7_5" viewBox="0 0 24 24">
<path d="M18.984 15v-6h-13.969v6h13.969zM18.984 6.984q0.797 0 1.406 0.609t0.609 1.406v6q0 0.797-0.609 1.406t-1.406 0.609h-13.969q-0.797 0-1.406-0.609t-0.609-1.406v-6q0-0.797 0.609-1.406t1.406-0.609h13.969z"></path>
</symbol>
<symbol id="icon-crop_din" viewBox="0 0 24 24">
<path d="M18.984 18.984v-13.969h-13.969v13.969h13.969zM18.984 3q0.797 0 1.406 0.609t0.609 1.406v13.969q0 0.797-0.609 1.406t-1.406 0.609h-13.969q-0.797 0-1.406-0.609t-0.609-1.406v-13.969q0-0.797 0.609-1.406t1.406-0.609h13.969z"></path>
</symbol>
<symbol id="icon-crop_free" viewBox="0 0 24 24">
<path d="M18.984 3q0.797 0 1.406 0.609t0.609 1.406v3.984h-2.016v-3.984h-3.984v-2.016h3.984zM18.984 18.984v-3.984h2.016v3.984q0 0.797-0.609 1.406t-1.406 0.609h-3.984v-2.016h3.984zM5.016 15v3.984h3.984v2.016h-3.984q-0.797 0-1.406-0.609t-0.609-1.406v-3.984h2.016zM3 5.016q0-0.797 0.609-1.406t1.406-0.609h3.984v2.016h-3.984v3.984h-2.016v-3.984z"></path>
</symbol>
<symbol id="icon-crop_original" viewBox="0 0 24 24">
<path d="M13.969 12.281l3.516 4.734h-10.969l2.719-3.563 1.969 2.391zM18.984 18.984v-13.969h-13.969v13.969h13.969zM18.984 3q0.797 0 1.406 0.609t0.609 1.406v13.969q0 0.797-0.609 1.406t-1.406 0.609h-13.969q-0.797 0-1.406-0.609t-0.609-1.406v-13.969q0-0.797 0.609-1.406t1.406-0.609h13.969z"></path>
</symbol>
<symbol id="icon-crop_portrait" viewBox="0 0 24 24">
<path d="M17.016 18.984v-13.969h-10.031v13.969h10.031zM17.016 3q0.797 0 1.383 0.609t0.586 1.406v13.969q0 0.797-0.586 1.406t-1.383 0.609h-10.031q-0.797 0-1.383-0.609t-0.586-1.406v-13.969q0-0.797 0.586-1.406t1.383-0.609h10.031z"></path>
</symbol>
<symbol id="icon-crop_square" viewBox="0 0 24 24">
<path d="M18 18v-12h-12v12h12zM18 3.984q0.797 0 1.406 0.609t0.609 1.406v12q0 0.797-0.609 1.406t-1.406 0.609h-12q-0.797 0-1.406-0.609t-0.609-1.406v-12q0-0.797 0.609-1.406t1.406-0.609h12z"></path>
</symbol>
<symbol id="icon-exposure" viewBox="0 0 24 24">
<path d="M14.484 15.984h-1.969v-1.5h1.969v-1.969h1.5v1.969h2.016v1.5h-2.016v2.016h-1.5v-2.016zM18.984 18.984v-13.969l-13.969 13.969h13.969zM6 6.984v1.5h5.016v-1.5h-5.016zM18.984 3q0.797 0 1.406 0.609t0.609 1.406v13.969q0 0.797-0.609 1.406t-1.406 0.609h-13.969q-0.797 0-1.406-0.609t-0.609-1.406v-13.969q0-0.797 0.609-1.406t1.406-0.609h13.969z"></path>
</symbol>
<symbol id="icon-filter_b_and_w" viewBox="0 0 24 24">
<path d="M18.984 18.984v-13.969h-6.984v6zM18.984 3q0.797 0 1.406 0.609t0.609 1.406v13.969q0 0.797-0.609 1.406t-1.406 0.609h-13.969q-0.797 0-1.406-0.609t-0.609-1.406v-13.969q0-0.797 0.609-1.406t1.406-0.609h13.969zM12 11.016l-6.984 7.969h6.984v-7.969z"></path>
</symbol>
<symbol id="icon-filter_center_focus" viewBox="0 0 24 24">
<path d="M12 9q1.219 0 2.109 0.891t0.891 2.109-0.891 2.109-2.109 0.891-2.109-0.891-0.891-2.109 0.891-2.109 2.109-0.891zM18.984 18.984v-3.984h2.016v3.984q0 0.797-0.609 1.406t-1.406 0.609h-3.984v-2.016h3.984zM18.984 3q0.797 0 1.406 0.609t0.609 1.406v3.984h-2.016v-3.984h-3.984v-2.016h3.984zM5.016 5.016v3.984h-2.016v-3.984q0-0.797 0.609-1.406t1.406-0.609h3.984v2.016h-3.984zM5.016 15v3.984h3.984v2.016h-3.984q-0.797 0-1.406-0.609t-0.609-1.406v-3.984h2.016z"></path>
</symbol>
<symbol id="icon-filter_none" viewBox="0 0 24 24">
<path d="M21 17.016v-14.016h-14.016v14.016h14.016zM21 0.984q0.797 0 1.406 0.609t0.609 1.406v14.016q0 0.797-0.609 1.383t-1.406 0.586h-14.016q-0.797 0-1.383-0.586t-0.586-1.383v-14.016q0-0.797 0.586-1.406t1.383-0.609h14.016zM3 5.016v15.984h15.984v2.016h-15.984q-0.797 0-1.406-0.609t-0.609-1.406v-15.984h2.016z"></path>
</symbol>
<symbol id="icon-filter_tilt_shift" viewBox="0 0 24 24">
<path d="M5.672 19.734l1.406-1.406q1.688 1.313 3.938 1.594v2.016q-1.266-0.141-2.836-0.797t-2.508-1.406zM12.984 19.922q2.203-0.281 3.891-1.594l1.453 1.406q-2.391 1.922-5.344 2.203v-2.016zM18.328 16.922q1.359-1.688 1.594-3.891h2.016q-0.141 1.219-0.797 2.789t-1.406 2.508zM15 12q0 1.219-0.891 2.109t-2.109 0.891-2.109-0.891-0.891-2.109 0.891-2.109 2.109-0.891 2.109 0.891 0.891 2.109zM4.078 12.984q0.234 2.203 1.594 3.891l-1.406 1.453q-1.922-2.391-2.203-5.344h2.016zM5.672 7.078q-1.313 1.734-1.594 3.938h-2.016q0.141-1.266 0.797-2.836t1.406-2.508zM19.922 11.016q-0.281-2.25-1.594-3.938l1.406-1.406q1.922 2.391 2.203 5.344h-2.016zM18.328 4.266l-1.406 1.406q-1.734-1.313-3.938-1.594v-2.016q1.266 0.141 2.836 0.797t2.508 1.406zM11.016 4.078q-2.25 0.281-3.938 1.594l-1.406-1.406q2.391-1.922 5.344-2.203v2.016z"></path>
</symbol>
<symbol id="icon-filter_vintage" viewBox="0 0 24 24">
<path d="M12 15.984q1.641 0 2.813-1.172t1.172-2.813-1.172-2.813-2.813-1.172-2.813 1.172-1.172 2.813 1.172 2.813 2.813 1.172zM14.906 6.938q1.641-1.313 3.797-1.313 1.594 0 3 0.797 0 1.453-0.891 2.953t-2.109 2.203q-0.094 0.047-0.258 0.141t-0.305 0.164-0.281 0.117q0.422 0.188 0.844 0.422 1.219 0.703 2.109 2.203t0.891 2.953q-1.406 0.797-3 0.797-2.156 0-3.797-1.313 0.094 0.656 0.094 0.938 0 1.641-0.82 3.023t-2.18 2.18q-1.359-0.797-2.18-2.18t-0.82-3.023q0-0.281 0.094-0.938-1.641 1.313-3.797 1.313-1.594 0-3-0.797 0-1.734 1.125-3.398t2.719-2.18l-0.844-0.422q-1.219-0.703-2.109-2.203t-0.891-2.953q1.5-0.844 3-0.844 2.109 0 3.797 1.359-0.094-0.656-0.094-0.938 0-1.641 0.82-3.023t2.18-2.18q1.359 0.797 2.18 2.18t0.82 3.023q0 0.281-0.094 0.938z"></path>
</symbol>
<symbol id="icon-flare" viewBox="0 0 24 24">
<path d="M11.016 23.016v-6h1.969v6h-1.969zM5.625 16.969l2.156-2.156 1.406 1.406-2.156 2.156zM14.813 16.219l1.406-1.406 2.156 2.156-1.406 1.406zM12 9q1.219 0 2.109 0.891t0.891 2.109-0.891 2.109-2.109 0.891-2.109-0.891-0.891-2.109 0.891-2.109 2.109-0.891zM17.016 11.016h6v1.969h-6v-1.969zM18.375 7.031l-2.156 2.156-1.406-1.406 2.156-2.156zM12.984 0.984v6h-1.969v-6h1.969zM9.188 7.781l-1.406 1.406-2.156-2.156 1.406-1.406zM6.984 11.016v1.969h-6v-1.969h6z"></path>
</symbol>
<symbol id="icon-flash_auto" viewBox="0 0 24 24">
<path d="M16.828 7.641h2.344l-1.172-3.656zM18.984 2.016l3.234 9h-1.922l-0.703-2.016h-3.188l-0.703 2.016h-1.922l3.234-9h1.969zM3 2.016h9.984l-3.984 9h3.984l-6.984 12v-9h-3v-12z"></path>
</symbol>
<symbol id="icon-flash_off" viewBox="0 0 24 24">
<path d="M17.016 9.984l-1.547 2.672-8.484-8.484v-2.156h10.031l-4.031 7.969h4.031zM3.281 3l15.703 15.75-1.266 1.266-4.125-4.172-3.609 6.141v-9h-3v-3.703l-4.969-5.016z"></path>
</symbol>
<symbol id="icon-flash_on" viewBox="0 0 24 24">
<path d="M6.984 2.016h10.031l-4.031 7.969h4.031l-7.031 12v-9h-3v-10.969z"></path>
</symbol>
<symbol id="icon-flip" viewBox="0 0 24 24">
<path d="M18.984 21v-2.016h2.016q0 0.797-0.609 1.406t-1.406 0.609zM18.984 12.984v-1.969h2.016v1.969h-2.016zM15 5.016v-2.016h2.016v2.016h-2.016zM18.984 17.016v-2.016h2.016v2.016h-2.016zM11.016 23.016v-22.031h1.969v22.031h-1.969zM18.984 3q0.797 0 1.406 0.609t0.609 1.406h-2.016v-2.016zM3 5.016q0-0.797 0.609-1.406t1.406-0.609h3.984v2.016h-3.984v13.969h3.984v2.016h-3.984q-0.797 0-1.406-0.609t-0.609-1.406v-13.969zM18.984 9v-2.016h2.016v2.016h-2.016zM15 21v-2.016h2.016v2.016h-2.016z"></path>
</symbol>
<symbol id="icon-gradient" viewBox="0 0 24 24">
<path d="M18.984 11.016v-6h-13.969v6h1.969v1.969h2.016v2.016h2.016v-2.016h1.969v2.016h2.016v-2.016h2.016v-1.969h1.969zM17.016 18v-2.016h-2.016v2.016h2.016zM12.984 18v-2.016h-1.969v2.016h1.969zM9 18v-2.016h-2.016v2.016h2.016zM18.984 3q0.797 0 1.406 0.609t0.609 1.406v13.969q0 0.797-0.609 1.406t-1.406 0.609h-13.969q-0.797 0-1.406-0.609t-0.609-1.406v-13.969q0-0.797 0.609-1.406t1.406-0.609h13.969zM6.984 9h2.016v2.016h-2.016v-2.016zM15 9h2.016v2.016h-2.016v-2.016zM11.016 9h1.969v2.016h2.016v1.969h-2.016v-1.969h-1.969v1.969h-2.016v-1.969h2.016v-2.016zM17.016 12.984v2.016h1.969v-2.016h-1.969zM6.984 12.984h-1.969v2.016h1.969v-2.016z"></path>
</symbol>
<symbol id="icon-grain" viewBox="0 0 24 24">
<path d="M9.984 3.984q0.797 0 1.406 0.609t0.609 1.406-0.609 1.406-1.406 0.609-1.383-0.609-0.586-1.406 0.586-1.406 1.383-0.609zM14.016 8.016q0.797 0 1.383 0.586t0.586 1.383-0.586 1.406-1.383 0.609-1.406-0.609-0.609-1.406 0.609-1.383 1.406-0.586zM18 12q0.797 0 1.406 0.609t0.609 1.406-0.609 1.383-1.406 0.586-1.406-0.586-0.609-1.383 0.609-1.406 1.406-0.609zM14.016 15.984q0.797 0 1.383 0.609t0.586 1.406-0.586 1.406-1.383 0.609-1.406-0.609-0.609-1.406 0.609-1.406 1.406-0.609zM18 8.016q-0.797 0-1.406-0.609t-0.609-1.406 0.609-1.406 1.406-0.609 1.406 0.609 0.609 1.406-0.609 1.406-1.406 0.609zM6 15.984q0.797 0 1.406 0.609t0.609 1.406-0.609 1.406-1.406 0.609-1.406-0.609-0.609-1.406 0.609-1.406 1.406-0.609zM6 8.016q0.797 0 1.406 0.586t0.609 1.383-0.609 1.406-1.406 0.609-1.406-0.609-0.609-1.406 0.609-1.383 1.406-0.586zM9.984 12q0.797 0 1.406 0.609t0.609 1.406-0.609 1.383-1.406 0.586-1.383-0.586-0.586-1.383 0.586-1.406 1.383-0.609z"></path>
</symbol>
<symbol id="icon-grid_off" viewBox="0 0 24 24">
<path d="M15.984 20.016h1.453l-1.453-1.453v1.453zM14.016 20.016v-3.469l-0.563-0.563h-3.469v4.031h4.031zM8.016 14.016v-3.469l-0.563-0.563h-3.469v4.031h4.031zM8.016 20.016v-4.031h-4.031v4.031h4.031zM3.984 6.563v1.453h1.453zM9.984 12.563v1.453h1.453zM1.266 1.266l21.469 21.469-1.266 1.266-2.016-2.016h-15.469q-0.797 0-1.383-0.586t-0.586-1.383v-15.469l-2.016-2.016zM15.984 3.984v4.031h4.031v-4.031h-4.031zM8.016 3.984h-1.453l-2.016-1.969h15.469q0.797 0 1.383 0.586t0.586 1.383v15.469l-1.969-2.016v-1.453h-1.453l-2.016-1.969h3.469v-4.031h-4.031v3.469l-1.969-2.016v-1.453h-1.453l-2.016-1.969h3.469v-4.031h-4.031v3.469l-1.969-2.016v-1.453z"></path>
</symbol>
<symbol id="icon-grid_on" viewBox="0 0 24 24">
<path d="M20.016 8.016v-4.031h-4.031v4.031h4.031zM20.016 14.016v-4.031h-4.031v4.031h4.031zM20.016 20.016v-4.031h-4.031v4.031h4.031zM14.016 8.016v-4.031h-4.031v4.031h4.031zM14.016 14.016v-4.031h-4.031v4.031h4.031zM14.016 20.016v-4.031h-4.031v4.031h4.031zM8.016 8.016v-4.031h-4.031v4.031h4.031zM8.016 14.016v-4.031h-4.031v4.031h4.031zM8.016 20.016v-4.031h-4.031v4.031h4.031zM20.016 2.016q0.797 0 1.383 0.586t0.586 1.383v16.031q0 0.797-0.586 1.383t-1.383 0.586h-16.031q-0.797 0-1.383-0.586t-0.586-1.383v-16.031q0-0.797 0.586-1.383t1.383-0.586h16.031z"></path>
</symbol>
<symbol id="icon-hdr_off" viewBox="0 0 24 24">
<path d="M2.484 2.484q4.594 4.641 19.125 19.031l-1.125 1.078-7.594-7.594h-3.375v-3.422l-1.5-1.5v4.922h-1.5v-2.484h-2.016v2.484h-1.5v-6h1.5v2.016h2.016v-2.016h0.375l-5.484-5.484zM12.984 10.5h-0.375l-1.5-1.5h1.875q0.609 0 1.055 0.445t0.445 1.055v1.922l-1.5-1.5v-0.422zM17.484 10.5v0.984h2.016v-0.984h-2.016zM17.484 15h-0.375l-1.125-1.078v-4.922h3.516q0.609 0 1.055 0.445t0.445 1.055v0.984q0 1.078-0.891 1.406l0.891 2.109h-1.5l-0.891-2.016h-1.125v2.016z"></path>
</symbol>
<symbol id="icon-hdr_on" viewBox="0 0 24 24">
<path d="M12.984 13.5v-3h-1.969v3h1.969zM12.984 9q0.609 0 1.055 0.445t0.445 1.055v3q0 0.609-0.445 1.055t-1.055 0.445h-3.469v-6h3.469zM6.516 11.016v-2.016h1.5v6h-1.5v-2.484h-2.016v2.484h-1.5v-6h1.5v2.016h2.016zM19.5 11.484v-0.984h-2.016v0.984h2.016zM21 11.484q0 0.938-0.891 1.406l0.891 2.109h-1.5l-0.891-2.016h-1.125v2.016h-1.5v-6h3.516q0.609 0 1.055 0.445t0.445 1.055v0.984z"></path>
</symbol>
<symbol id="icon-hdr_strong" viewBox="0 0 24 24">
<path d="M5.016 14.016q0.797 0 1.383-0.609t0.586-1.406-0.586-1.406-1.383-0.609-1.406 0.609-0.609 1.406 0.609 1.406 1.406 0.609zM5.016 8.016q1.641 0 2.813 1.172t1.172 2.813-1.172 2.813-2.813 1.172-2.836-1.172-1.195-2.813 1.195-2.813 2.836-1.172zM17.016 6q2.484 0 4.242 1.758t1.758 4.242-1.758 4.242-4.242 1.758-4.242-1.758-1.758-4.242 1.758-4.242 4.242-1.758z"></path>
</symbol>
<symbol id="icon-hdr_weak" viewBox="0 0 24 24">
<path d="M17.016 15.984q1.641 0 2.813-1.172t1.172-2.813-1.172-2.813-2.813-1.172-2.836 1.172-1.195 2.813 1.195 2.813 2.836 1.172zM17.016 6q2.484 0 4.242 1.758t1.758 4.242-1.758 4.242-4.242 1.758-4.242-1.758-1.758-4.242 1.758-4.242 4.242-1.758zM5.016 8.016q1.641 0 2.813 1.172t1.172 2.813-1.172 2.813-2.813 1.172-2.836-1.172-1.195-2.813 1.195-2.813 2.836-1.172z"></path>
</symbol>
<symbol id="icon-healing" viewBox="0 0 24 24">
<path d="M16.641 20.344l3.656-3.656-3.656-3.609-3.609 3.656zM14.016 11.016q-0.422 0-0.727 0.281t-0.305 0.703 0.305 0.703 0.727 0.281 0.703-0.281 0.281-0.703-0.281-0.703-0.703-0.281zM12 15q0.422 0 0.703-0.281t0.281-0.703-0.281-0.727-0.703-0.305-0.703 0.305-0.281 0.727 0.281 0.703 0.703 0.281zM9.984 12.984q0.422 0 0.727-0.281t0.305-0.703-0.305-0.703-0.727-0.281-0.703 0.281-0.281 0.703 0.281 0.703 0.703 0.281zM7.313 10.969l3.609-3.656-3.609-3.609-3.656 3.656zM12 9q-0.422 0-0.703 0.281t-0.281 0.703 0.281 0.727 0.703 0.305 0.703-0.305 0.281-0.727-0.281-0.703-0.703-0.281zM17.719 12l3.984 3.984q0.328 0.328 0.328 0.703t-0.328 0.703l-4.313 4.359q-0.281 0.281-0.703 0.281-0.469 0-0.75-0.281l-3.938-3.984-3.984 3.984q-0.281 0.281-0.703 0.281t-0.703-0.281l-4.359-4.359q-0.281-0.281-0.281-0.703t0.281-0.703l3.984-3.984-3.984-3.938q-0.281-0.281-0.281-0.75 0-0.422 0.281-0.703l4.359-4.313q0.281-0.281 0.703-0.281t0.703 0.281l3.984 3.984 3.938-3.984q0.281-0.281 0.75-0.281 0.422 0 0.703 0.281l4.313 4.313q0.281 0.281 0.281 0.703 0 0.469-0.281 0.75z"></path>
</symbol>
<symbol id="icon-image_aspect_ratio" viewBox="0 0 24 24">
<path d="M20.016 18v-12h-16.031v12h16.031zM20.016 3.984q0.797 0 1.383 0.609t0.586 1.406v12q0 0.797-0.586 1.406t-1.383 0.609h-16.031q-0.797 0-1.383-0.609t-0.586-1.406v-12q0-0.797 0.586-1.406t1.383-0.609h16.031zM12 9.984v2.016h-2.016v-2.016h2.016zM8.016 9.984v2.016h-2.016v-2.016h2.016zM15.984 14.016v1.969h-1.969v-1.969h1.969zM15.984 9.984v2.016h-1.969v-2.016h1.969z"></path>
</symbol>
<symbol id="icon-iso" viewBox="0 0 24 24">
<path d="M17.016 17.016h-5.016v-1.5h5.016v1.5zM18.984 18.984v-13.969l-13.969 13.969h13.969zM5.484 7.5v1.5h2.016v2.016h1.5v-2.016h2.016v-1.5h-2.016v-2.016h-1.5v2.016h-2.016zM18.984 3q0.797 0 1.406 0.609t0.609 1.406v13.969q0 0.797-0.609 1.406t-1.406 0.609h-13.969q-0.797 0-1.406-0.609t-0.609-1.406v-13.969q0-0.797 0.609-1.406t1.406-0.609h13.969z"></path>
</symbol>
<symbol id="icon-leak_add" viewBox="0 0 24 24">
<path d="M14.016 21q0-2.906 2.039-4.945t4.945-2.039v1.969q-2.063 0-3.539 1.477t-1.477 3.539h-1.969zM18 21q0-1.219 0.891-2.109t2.109-0.891v3h-3zM9.984 21q0-4.547 3.234-7.781t7.781-3.234v2.016q-3.75 0-6.375 2.625t-2.625 6.375h-2.016zM9.984 3q0 2.906-2.039 4.945t-4.945 2.039v-1.969q2.063 0 3.539-1.477t1.477-3.539h1.969zM14.016 3q0 4.547-3.234 7.781t-7.781 3.234v-2.016q3.75 0 6.375-2.625t2.625-6.375h2.016zM6 3q0 1.219-0.891 2.109t-2.109 0.891v-3h3z"></path>
</symbol>
<symbol id="icon-leak_remove" viewBox="0 0 24 24">
<path d="M15.375 11.578q2.672-1.594 5.625-1.594v2.016q-2.203 0-4.172 1.031zM19.922 16.125l-1.594-1.594q1.266-0.516 2.672-0.516v1.969q-0.563 0-1.078 0.141zM14.016 3q0 2.953-1.594 5.625l-1.453-1.453q1.031-1.969 1.031-4.172h2.016zM3 4.266l1.266-1.266 16.734 16.734-1.266 1.266-2.859-2.859q-0.891 1.266-0.891 2.859h-1.969q0-0.984 0.422-2.227t1.031-2.039l-1.453-1.406q-2.016 2.484-2.016 5.672h-2.016q0-1.688 0.773-3.773t1.852-3.352l-2.484-2.484q-3.094 2.625-7.125 2.625v-2.016q1.359 0 3.023-0.586t2.695-1.43l-1.453-1.453q-1.922 1.453-4.266 1.453v-1.969q1.594 0 2.859-0.891zM9.984 3q0 1.406-0.516 2.672l-1.594-1.594q0.141-0.516 0.141-1.078h1.969z"></path>
</symbol>
<symbol id="icon-monochrome_photos" viewBox="0 0 24 24">
<path d="M20.016 18.984v-12h-8.016v1.031q2.109 0 3.563 1.43t1.453 3.539-1.453 3.563-3.563 1.453v-1.781q-1.313 0-2.25-0.938t-0.938-2.297 0.938-2.273 2.25-0.914v6.422q1.313 0 2.25-0.938t0.938-2.297-0.938-2.273-2.25-0.914v-1.781q-2.109 0-3.563 1.43t-1.453 3.539 1.453 3.563 3.563 1.453v0.984h8.016zM20.016 5.016q0.797 0 1.383 0.586t0.586 1.383v12q0 0.797-0.586 1.406t-1.383 0.609h-16.031q-0.797 0-1.383-0.609t-0.586-1.406v-12q0-0.797 0.586-1.383t1.383-0.586h3.234l1.781-2.016h6l1.781 2.016h3.234z"></path>
</symbol>
<symbol id="icon-photo_album" viewBox="0 0 24 24">
<path d="M6 18.984h12l-3.844-5.109-3 3.844-2.156-2.578zM6 3.984v8.016l2.484-1.5 2.531 1.5v-8.016h-5.016zM18 2.016q0.797 0 1.406 0.586t0.609 1.383v16.031q0 0.797-0.609 1.383t-1.406 0.586h-12q-0.797 0-1.406-0.586t-0.609-1.383v-16.031q0-0.797 0.609-1.383t1.406-0.586h12z"></path>
</symbol>
<symbol id="icon-rotate_90_degrees_ccw" viewBox="0 0 24 24">
<path d="M19.359 6.656q1.078 1.078 1.852 2.93t0.773 3.398-0.773 3.422-1.852 2.953q-2.578 2.625-6.375 2.625-2.297 0-4.313-1.125l1.5-1.453q1.406 0.609 2.859 0.609 1.172 0 2.625-0.609t2.297-1.453 1.453-2.32 0.609-2.648-0.609-2.625-1.453-2.297q-2.063-2.063-4.969-2.063v3.234l-4.219-4.219 4.219-4.266v3.234h0.047q1.547 0 3.398 0.797t2.93 1.875zM3.703 12.891l3.656 3.656 3.656-3.656-3.656-3.656zM7.359 6.422l6.469 6.469-6.469 6.469-6.516-6.469z"></path>
</symbol>
<symbol id="icon-rotate_left" viewBox="0 0 24 24">
<path d="M12.984 4.078q2.953 0.375 4.992 2.625t2.039 5.297-2.039 5.297-4.992 2.625v-2.016q2.156-0.375 3.586-2.039t1.43-3.867-1.43-3.867-3.586-2.039v3.891l-4.547-4.453 4.547-4.547v3.094zM7.078 18.328l1.453-1.453q1.078 0.797 2.484 1.031v2.016q-2.25-0.281-3.938-1.594zM6.094 12.984q0.234 1.359 0.984 2.484l-1.406 1.406q-1.313-1.734-1.594-3.891h2.016zM7.125 8.531q-0.844 1.219-1.031 2.484h-2.016q0.281-2.109 1.641-3.891z"></path>
</symbol>
<symbol id="icon-rotate_right" viewBox="0 0 24 24">
<path d="M16.875 15.469q0.797-1.078 1.031-2.484h2.016q-0.281 2.156-1.594 3.891zM12.984 17.906q1.406-0.234 2.484-1.031l1.453 1.453q-1.688 1.313-3.938 1.594v-2.016zM19.922 11.016h-2.016q-0.234-1.406-1.031-2.484l1.453-1.406q1.359 1.688 1.594 3.891zM15.563 5.531l-4.547 4.453v-3.891q-2.156 0.375-3.586 2.039t-1.43 3.867 1.43 3.867 3.586 2.039v2.016q-2.953-0.375-4.992-2.625t-2.039-5.297 2.039-5.297 4.992-2.625v-3.094z"></path>
</symbol>
<symbol id="icon-transform" viewBox="0 0 24 24">
<path d="M9.984 8.016v-2.016h6q0.797 0 1.406 0.609t0.609 1.406v6h-2.016v-6h-6zM21.984 18h-3.984v2.016h2.016l-3 3-3-3h1.969v-2.016h-7.969q-0.797 0-1.406-0.609t-0.609-1.406v-7.969h-3.984v-2.016h3.984v-2.016h-2.016l3-3 3 3h-1.969v12h13.969v2.016z"></path>
</symbol>
<symbol id="icon-tune" viewBox="0 0 24 24">
<path d="M15 9v-6h2.016v2.016h3.984v1.969h-3.984v2.016h-2.016zM21 12.984h-9.984v-1.969h9.984v1.969zM6.984 9h2.016v6h-2.016v-2.016h-3.984v-1.969h3.984v-2.016zM12.984 21h-1.969v-6h1.969v2.016h8.016v1.969h-8.016v2.016zM3 5.016h9.984v1.969h-9.984v-1.969zM3 17.016h6v1.969h-6v-1.969z"></path>
</symbol>
<symbol id="icon-view_compact" viewBox="0 0 24 24">
<path d="M3 5.016h18.984v6h-18.984v-6zM9.984 18.984v-6.984h12v6.984h-12zM3 18.984v-6.984h6v6.984h-6z"></path>
</symbol>
<symbol id="icon-photo_size_select_actual" viewBox="0 0 24 24">
<path d="M5.016 17.016h13.969l-4.5-6-3.469 4.5-2.531-3zM21 3q0.75 0 1.383 0.633t0.633 1.383v13.969q0 0.75-0.633 1.383t-1.383 0.633h-18q-0.797 0-1.406-0.609t-0.609-1.406v-13.969q0-0.75 0.633-1.383t1.383-0.633h18z"></path>
</symbol>
<symbol id="icon-photo_size_select_large" viewBox="0 0 24 24">
<path d="M3 18.984h9.984l-3.188-4.266-2.484 3.234-1.828-2.156zM0.984 11.016h14.016v9.984h-12q-0.797 0-1.406-0.609t-0.609-1.406v-7.969zM5.016 3h1.969v2.016h-1.969v-2.016zM9 3h2.016v2.016h-2.016v-2.016zM3 3v2.016h-2.016q0-0.75 0.633-1.383t1.383-0.633zM17.016 18.984h1.969v2.016h-1.969v-2.016zM17.016 3h1.969v2.016h-1.969v-2.016zM0.984 6.984h2.016v2.016h-2.016v-2.016zM21 3q0.75 0 1.383 0.633t0.633 1.383h-2.016v-2.016zM21 6.984h2.016v2.016h-2.016v-2.016zM12.984 3h2.016v2.016h-2.016v-2.016zM23.016 18.984q0 0.75-0.633 1.383t-1.383 0.633v-2.016h2.016zM21 11.016h2.016v1.969h-2.016v-1.969zM21 15h2.016v2.016h-2.016v-2.016z"></path>
</symbol>
<symbol id="icon-photo_size_select_small" viewBox="0 0 24 24">
<path d="M6.984 3v2.016h-1.969v-2.016h1.969zM11.016 3v2.016h-2.016v-2.016h2.016zM3 11.016v1.969h-2.016v-1.969h2.016zM3 3v2.016h-2.016q0-0.75 0.633-1.383t1.383-0.633zM18.984 18.984v2.016h-1.969v-2.016h1.969zM18.984 3v2.016h-1.969v-2.016h1.969zM15 18.984v2.016h-2.016v-2.016h2.016zM3 6.984v2.016h-2.016v-2.016h2.016zM3 21q-0.797 0-1.406-0.609t-0.609-1.406v-3.984h10.031v6h-8.016zM21 3q0.75 0 1.383 0.633t0.633 1.383h-2.016v-2.016zM23.016 6.984v2.016h-2.016v-2.016h2.016zM15 3v2.016h-2.016v-2.016h2.016zM23.016 18.984q0 0.75-0.633 1.383t-1.383 0.633v-2.016h2.016zM23.016 11.016v1.969h-2.016v-1.969h2.016zM23.016 15v2.016h-2.016v-2.016h2.016z"></path>
</symbol>
<symbol id="icon-crop_rotate" viewBox="0 0 24 24">
<path d="M8.016 15.984h12v2.016h-2.016v2.016h-2.016v-2.016h-7.969q-0.844 0-1.43-0.586t-0.586-1.43v-7.969h-2.016v-2.016h2.016v-2.016h2.016v12zM15.984 14.016v-6h-6v-2.016h6q0.844 0 1.43 0.586t0.586 1.43v6h-2.016zM12.047 0q4.688 0 8.133 3.188t3.82 7.828h-1.5q-0.281-2.813-1.875-5.063t-4.078-3.422l-1.359 1.313-3.797-3.797q0.141 0 0.328-0.023t0.328-0.023zM7.453 21.469l1.359-1.313 3.797 3.797q-0.141 0-0.328 0.023t-0.328 0.023q-4.688 0-8.133-3.188t-3.82-7.828h1.5q0.281 2.813 1.875 5.063t4.078 3.422z"></path>
</symbol>
<symbol id="icon-linked_camera" viewBox="0 0 24 24">
<path d="M15.984 6q0.844 0 1.43 0.586t0.586 1.43h1.313q0-1.359-0.984-2.344t-2.344-0.984v1.313zM12 18.984q2.063 0 3.539-1.453t1.477-3.516-1.477-3.539-3.539-1.477-3.539 1.477-1.477 3.539 1.477 3.516 3.539 1.453zM17.016 9h4.969v11.016q0 0.797-0.586 1.383t-1.383 0.586h-16.031q-0.797 0-1.383-0.586t-0.586-1.383v-12q0-0.797 0.586-1.406t1.383-0.609h3.188l1.828-2.016h6v3q0.844 0 1.43 0.586t0.586 1.43zM15.984 3.328v-1.313q2.484 0 4.242 1.758t1.758 4.242h-1.313q0-1.922-1.383-3.305t-3.305-1.383zM8.813 14.016q0-1.359 0.938-2.297t2.25-0.938 2.25 0.938 0.938 2.297-0.938 2.273-2.25 0.914-2.25-0.914-0.938-2.273z"></path>
</symbol>
<symbol id="icon-add_a_photo" viewBox="0 0 24 24">
<path d="M9.797 14.016q0-1.359 0.938-2.297t2.25-0.938q1.359 0 2.297 0.938t0.938 2.297q0 1.313-0.938 2.25t-2.297 0.938-2.273-0.914-0.914-2.273zM12.984 18.984q2.063 0 3.539-1.453t1.477-3.516-1.477-3.539-3.539-1.477-3.516 1.477-1.453 3.539 1.453 3.516 3.516 1.453zM6 9.984v-3h3v-3h6.984l1.828 2.016h3.188q0.797 0 1.406 0.609t0.609 1.406v12q0 0.797-0.609 1.383t-1.406 0.586h-15.984q-0.797 0-1.406-0.586t-0.609-1.383v-10.031h3zM3 3.984v-3h2.016v3h3v2.016h-3v3h-2.016v-3h-3v-2.016h3z"></path>
</symbol>
<symbol id="icon-photo_filter" viewBox="0 0 24 24">
<path d="M13.266 10.734l2.719 1.266-2.719 1.266-1.266 2.719-1.266-2.719-2.719-1.266 2.719-1.266 1.266-2.719zM17.016 9.984l-0.938-2.063-2.063-0.938 2.063-0.938 0.938-2.063 0.938 2.063 2.063 0.938-2.063 0.938zM19.031 9.984h1.969v9q0 0.797-0.586 1.406t-1.383 0.609h-14.016q-0.797 0-1.406-0.609t-0.609-1.406v-13.969q0-0.797 0.609-1.406t1.406-0.609h9v2.016h-9v13.969h14.016v-9z"></path>
</symbol>
<symbol id="icon-add_photo_alternate" viewBox="0 0 24 24">
<path d="M5.016 18.984h12l-4.031-4.969-3 3.984-1.969-3zM15.984 11.016h3v7.969q0 0.797-0.586 1.406t-1.383 0.609h-12q-0.797 0-1.406-0.609t-0.609-1.406v-12q0-0.797 0.609-1.383t1.406-0.586h7.969v3h3v3zM18.984 6.984v3h-1.969v-3h-3v-1.969h3v-3h1.969v3h3v1.969h-3z"></path>
</symbol>
<symbol id="icon-image_search" viewBox="0 0 24 24">
<path d="M15.516 9q1.031 0 1.758-0.727t0.727-1.758-0.727-1.781-1.758-0.75-1.781 0.75-0.75 1.781 0.75 1.758 1.781 0.727zM19.313 8.906l3.094 3.094-1.406 1.406-3.141-3.094q-1.172 0.703-2.391 0.703-1.875 0-3.164-1.313t-1.289-3.188 1.313-3.188 3.188-1.313 3.188 1.313 1.313 3.188q0 1.219-0.703 2.391zM16.5 18h-11.016l2.766-3.516 1.969 2.344 2.719-3.516zM18 12.984l2.016 2.016v5.016q0 0.797-0.609 1.383t-1.406 0.586h-14.016q-0.797 0-1.383-0.586t-0.586-1.383v-14.016q0-0.797 0.586-1.406t1.383-0.609h5.531q-0.469 0.984-0.516 2.016h-5.016v14.016h14.016v-7.031z"></path>
</symbol>
<symbol id="icon-arrow_drop_down" viewBox="0 0 24 24">
<path d="M6.984 9.984h10.031l-5.016 5.016z"></path>
</symbol>
<symbol id="icon-arrow_drop_up" viewBox="0 0 24 24">
<path d="M6.984 14.016l5.016-5.016 5.016 5.016h-10.031z"></path>
</symbol>
<symbol id="icon-check1" viewBox="0 0 24 24">
<path d="M9 16.172l10.594-10.594 1.406 1.406-12 12-5.578-5.578 1.406-1.406z"></path>
</symbol>
<symbol id="icon-fullscreen" viewBox="0 0 24 24">
<path d="M14.016 5.016h4.969v4.969h-1.969v-3h-3v-1.969zM17.016 17.016v-3h1.969v4.969h-4.969v-1.969h3zM5.016 9.984v-4.969h4.969v1.969h-3v3h-1.969zM6.984 14.016v3h3v1.969h-4.969v-4.969h1.969z"></path>
</symbol>
<symbol id="icon-fullscreen_exit" viewBox="0 0 24 24">
<path d="M15.984 8.016h3v1.969h-4.969v-4.969h1.969v3zM14.016 18.984v-4.969h4.969v1.969h-3v3h-1.969zM8.016 8.016v-3h1.969v4.969h-4.969v-1.969h3zM5.016 15.984v-1.969h4.969v4.969h-1.969v-3h-3z"></path>
</symbol>
<symbol id="icon-menu1" viewBox="0 0 24 24">
<path d="M3 6h18v2.016h-18v-2.016zM3 12.984v-1.969h18v1.969h-18zM3 18v-2.016h18v2.016h-18z"></path>
</symbol>
<symbol id="icon-keyboard_control" viewBox="0 0 24 24">
<path d="M12 9.984q0.797 0 1.406 0.609t0.609 1.406-0.609 1.406-1.406 0.609-1.406-0.609-0.609-1.406 0.609-1.406 1.406-0.609zM18 9.984q0.797 0 1.406 0.609t0.609 1.406-0.609 1.406-1.406 0.609-1.406-0.609-0.609-1.406 0.609-1.406 1.406-0.609zM6 9.984q0.797 0 1.406 0.609t0.609 1.406-0.609 1.406-1.406 0.609-1.406-0.609-0.609-1.406 0.609-1.406 1.406-0.609z"></path>
</symbol>
<symbol id="icon-more_vert" viewBox="0 0 24 24">
<path d="M12 15.984q0.797 0 1.406 0.609t0.609 1.406-0.609 1.406-1.406 0.609-1.406-0.609-0.609-1.406 0.609-1.406 1.406-0.609zM12 9.984q0.797 0 1.406 0.609t0.609 1.406-0.609 1.406-1.406 0.609-1.406-0.609-0.609-1.406 0.609-1.406 1.406-0.609zM12 8.016q-0.797 0-1.406-0.609t-0.609-1.406 0.609-1.406 1.406-0.609 1.406 0.609 0.609 1.406-0.609 1.406-1.406 0.609z"></path>
</symbol>
<symbol id="icon-refresh" viewBox="0 0 24 24">
<path d="M17.672 6.328l2.344-2.344v7.031h-7.031l3.234-3.234q-1.781-1.781-4.219-1.781-2.484 0-4.242 1.758t-1.758 4.242 1.758 4.242 4.242 1.758q1.734 0 3.398-1.172t2.273-2.813h2.063q-0.656 2.625-2.813 4.313t-4.922 1.688q-3.281 0-5.625-2.344t-2.344-5.672 2.344-5.672 5.625-2.344q1.406 0 3.070 0.68t2.602 1.664z"></path>
</symbol>
<symbol id="icon-unfold_less" viewBox="0 0 24 24">
<path d="M16.594 5.391l-4.594 4.594-4.594-4.594 1.406-1.406 3.188 3.188 3.188-3.188zM7.406 18.609l4.594-4.594 4.594 4.594-1.406 1.406-3.188-3.188-3.188 3.188z"></path>
</symbol>
<symbol id="icon-unfold_more" viewBox="0 0 24 24">
<path d="M12 18.188l3.188-3.188 1.406 1.406-4.594 4.594-4.594-4.594 1.406-1.406zM12 5.813l-3.188 3.188-1.406-1.406 4.594-4.594 4.594 4.594-1.406 1.406z"></path>
</symbol>
<symbol id="icon-aspect_ratio" viewBox="0 0 24 24">
<path d="M21 19.031v-14.063h-18v14.063h18zM21 3q0.797 0 1.406 0.609t0.609 1.406v13.969q0 0.797-0.609 1.406t-1.406 0.609h-18q-0.797 0-1.406-0.609t-0.609-1.406v-13.969q0-0.797 0.609-1.406t1.406-0.609h18zM6.984 9v3h-1.969v-5.016h4.969v2.016h-3zM18.984 12v5.016h-4.969v-2.016h3v-3h1.969z"></path>
</symbol>
<symbol id="icon-dashboard" viewBox="0 0 24 24">
<path d="M12.984 3h8.016v6h-8.016v-6zM12.984 21v-9.984h8.016v9.984h-8.016zM3 21v-6h8.016v6h-8.016zM3 12.984v-9.984h8.016v9.984h-8.016z"></path>
</symbol>
<symbol id="icon-delete" viewBox="0 0 24 24">
<path d="M18.984 3.984v2.016h-13.969v-2.016h3.469l1.031-0.984h4.969l1.031 0.984h3.469zM6 18.984v-12h12v12q0 0.797-0.609 1.406t-1.406 0.609h-7.969q-0.797 0-1.406-0.609t-0.609-1.406z"></path>
</symbol>
<symbol id="icon-description" viewBox="0 0 24 24">
<path d="M12.984 9h5.531l-5.531-5.484v5.484zM15.984 14.016v-2.016h-7.969v2.016h7.969zM15.984 18v-2.016h-7.969v2.016h7.969zM14.016 2.016l6 6v12q0 0.797-0.609 1.383t-1.406 0.586h-12q-0.797 0-1.406-0.586t-0.609-1.383l0.047-16.031q0-0.797 0.586-1.383t1.383-0.586h8.016z"></path>
</symbol>
<symbol id="icon-done" viewBox="0 0 24 24">
<path d="M9 16.219l10.594-10.641 1.406 1.406-12 12-5.578-5.578 1.359-1.406z"></path>
</symbol>
<symbol id="icon-done_all" viewBox="0 0 24 24">
<path d="M0.422 13.406l1.406-1.406 5.578 5.578-1.406 1.406zM22.219 5.578l1.453 1.406-12 12-5.625-5.578 1.453-1.406 4.172 4.172zM18 6.984l-6.328 6.375-1.406-1.406 6.328-6.375z"></path>
</symbol>
<symbol id="icon-favorite" viewBox="0 0 24 24">
<path d="M12 21.328l-1.453-1.313q-2.484-2.25-3.609-3.328t-2.508-2.672-1.898-2.883-0.516-2.648q0-2.297 1.57-3.891t3.914-1.594q2.719 0 4.5 2.109 1.781-2.109 4.5-2.109 2.344 0 3.914 1.594t1.57 3.891q0 1.828-1.219 3.797t-2.648 3.422-4.664 4.359z"></path>
</symbol>
<symbol id="icon-favorite_outline" viewBox="0 0 24 24">
<path d="M12.094 18.563q2.25-2.016 3.328-3.047t2.344-2.438 1.758-2.484 0.492-2.109q0-1.5-1.008-2.484t-2.508-0.984q-1.172 0-2.18 0.656t-1.383 1.688h-1.875q-0.375-1.031-1.383-1.688t-2.18-0.656q-1.5 0-2.508 0.984t-1.008 2.484q0 1.031 0.492 2.109t1.758 2.484 2.344 2.438 3.328 3.047l0.094 0.094zM16.5 3q2.344 0 3.914 1.594t1.57 3.891q0 1.359-0.516 2.648t-1.898 2.883-2.508 2.672-3.609 3.328l-1.453 1.313-1.453-1.266q-3.234-2.906-4.664-4.359t-2.648-3.422-1.219-3.797q0-2.297 1.57-3.891t3.914-1.594q2.719 0 4.5 2.109 1.781-2.109 4.5-2.109z"></path>
</symbol>
<symbol id="icon-flip_to_back" viewBox="0 0 24 24">
<path d="M15 17.016v-2.016h2.016v2.016h-2.016zM15 5.016v-2.016h2.016v2.016h-2.016zM5.016 6.984v12h12v2.016h-12q-0.844 0-1.43-0.586t-0.586-1.43v-12h2.016zM18.984 17.016v-2.016h2.016q0 0.797-0.609 1.406t-1.406 0.609zM18.984 9v-2.016h2.016v2.016h-2.016zM18.984 12.984v-1.969h2.016v1.969h-2.016zM9 17.016q-0.844 0-1.43-0.586t-0.586-1.43h2.016v2.016zM12.984 3v2.016h-1.969v-2.016h1.969zM18.984 3q0.797 0 1.406 0.609t0.609 1.406h-2.016v-2.016zM12.984 15v2.016h-1.969v-2.016h1.969zM9 3v2.016h-2.016q0-0.844 0.586-1.43t1.43-0.586zM9 11.016v1.969h-2.016v-1.969h2.016zM9 6.984v2.016h-2.016v-2.016h2.016z"></path>
</symbol>
<symbol id="icon-flip_to_front" viewBox="0 0 24 24">
<path d="M6.984 21v-2.016h2.016v2.016h-2.016zM11.016 21v-2.016h1.969v2.016h-1.969zM18.984 15v-9.984h-9.984v9.984h9.984zM18.984 3q0.797 0 1.406 0.609t0.609 1.406v9.984q0 0.797-0.609 1.406t-1.406 0.609h-9.984q-0.844 0-1.43-0.586t-0.586-1.43v-9.984q0-0.844 0.586-1.43t1.43-0.586h9.984zM15 21v-2.016h2.016v2.016h-2.016zM3 9v-2.016h2.016v2.016h-2.016zM5.016 21q-0.844 0-1.43-0.586t-0.586-1.43h2.016v2.016zM3 17.016v-2.016h2.016v2.016h-2.016zM3 12.984v-1.969h2.016v1.969h-2.016z"></path>
</symbol>
<symbol id="icon-open_with" viewBox="0 0 24 24">
<path d="M14.016 15v3h3l-5.016 5.016-5.016-5.016h3v-3h4.031zM23.016 12l-5.016 5.016v-3h-3v-4.031h3v-3zM9 9.984v4.031h-3v3l-5.016-5.016 5.016-5.016v3h3zM9.984 9v-3h-3l5.016-5.016 5.016 5.016h-3v3h-4.031z"></path>
</symbol>
<symbol id="icon-picture_in_picture" viewBox="0 0 24 24">
<path d="M21 19.031v-14.063h-18v14.063h18zM21 3q0.797 0 1.406 0.609t0.609 1.406v13.969q0 0.797-0.609 1.406t-1.406 0.609h-18q-0.797 0-1.406-0.609t-0.609-1.406v-13.969q0-0.797 0.609-1.406t1.406-0.609h18zM18.984 6.984v6h-7.969v-6h7.969z"></path>
</symbol>
<symbol id="icon-picture_in_picture_alt" viewBox="0 0 24 24">
<path d="M21 19.031v-14.063h-18v14.063h18zM23.016 18.984q0 0.797-0.609 1.406t-1.406 0.609h-18q-0.797 0-1.406-0.609t-0.609-1.406v-14.016q0-0.797 0.609-1.383t1.406-0.586h18q0.797 0 1.406 0.586t0.609 1.383v14.016zM18.984 11.016v6h-7.969v-6h7.969z"></path>
</symbol>
<symbol id="icon-drag_indicator" viewBox="0 0 24 24">
<path d="M15 15.984q0.797 0 1.406 0.609t0.609 1.406-0.609 1.406-1.406 0.609-1.406-0.609-0.609-1.406 0.609-1.406 1.406-0.609zM15 9.984q0.797 0 1.406 0.609t0.609 1.406-0.609 1.406-1.406 0.609-1.406-0.609-0.609-1.406 0.609-1.406 1.406-0.609zM15 8.016q-0.797 0-1.406-0.609t-0.609-1.406 0.609-1.406 1.406-0.609 1.406 0.609 0.609 1.406-0.609 1.406-1.406 0.609zM9 3.984q0.797 0 1.406 0.609t0.609 1.406-0.609 1.406-1.406 0.609-1.406-0.609-0.609-1.406 0.609-1.406 1.406-0.609zM9 9.984q0.797 0 1.406 0.609t0.609 1.406-0.609 1.406-1.406 0.609-1.406-0.609-0.609-1.406 0.609-1.406 1.406-0.609zM11.016 18q0 0.797-0.609 1.406t-1.406 0.609-1.406-0.609-0.609-1.406 0.609-1.406 1.406-0.609 1.406 0.609 0.609 1.406z"></path>
</symbol>
</defs>
</svg>
