<svg version="1.1" xmlns="http://www.w3.org/2000/svg" xmlns:xlink="http://www.w3.org/1999/xlink" width="1560" height="804"><defs/><g><path fill="none" stroke="#02063B" paint-order="fill stroke markers" d=" M 20 422.8332474403231 L 21 423.87145281167125 L 22 424.90915264930345 L 23 425.9463229679703 L 24 426.98293979466115 L 25 428.0189791691592 L 26 429.0544171445944 L 27 430.0892297879976 L 28 431.1233931808534 L 29 432.156883419653 L 30 433.189676616447 L 31 434.22174889939714 L 32 435.25307641332836 L 33 436.28363532028004 L 34 437.313401800057 L 35 438.3423520507803 L 36 439.37046228943694 L 37 440.39770875243005 L 38 441.42406769612785 L 39 442.44951539741254 L 40 443.4740281542288 L 41 444.49758228613126 L 42 445.52015413483224 L 43 446.54172006474835 L 44 447.5622564635469 L 45 448.5817397426916 L 46 449.60014633798784 L 47 450.6174527101274 L 48 451.63363534523234 L 49 452.6486707553987 L 50 453.6625354792393 L 51 454.675206082426 L 52 455.68665915823146 L 53 456.69687132807013 L 54 457.70581924203844 L 55 458.7134795794548 L 56 459.7198290493984 L 57 460.72484439124776 L 58 461.7285023752181 L 59 462.73077980289844 L 60 463.7316535077879 L 61 464.7311003558309 L 62 465.72909724595223 L 63 466.72562111059057 L 64 467.7206489162321 L 65 468.7141576639426 L 66 469.70612438989923 L 67 470.69652616592106 L 68 471.68534009999934 L 69 472.67254333682644 L 70 473.65811305832415 L 71 474.64202648417114 L 72 475.6242608723294 L 73 476.6047935195701 L 74 477.58360176199795 L 75 478.5606629755756 L 76 479.5359545766462 L 77 480.5094540224553 L 78 481.48113881167234 L 79 482.4509864849103 L 80 483.418974625245 L 81 484.3850808587335 L 82 485.34928285493055 L 83 486.31155832740563 L 84 487.2718850342573 L 85 488.2302407786277 L 86 489.1866034092157 L 87 490.1409508207885 L 88 491.09326095469277 L 89 492.04351179936475 L 90 492.99168139083866 L 91 493.93774781325453 L 92 494.8816891993648 L 93 495.82348373103963 L 94 496.7631096397713 L 95 497.70054520717736 L 96 498.63576876550263 L 97 499.5687586981199 L 98 500.49949344002977 L 99 501.427951478359 L 100 502.3541113528576 L 101 503.27795165639526 L 102 504.1994510354558 L 103 505.1185881906308 L 104 506.03534187711205 L 105 506.94969090518236 L 106 507.8616141407057 L 107 508.7710905056152 L 108 509.67809897840084 L 109 510.582618594595 L 110 511.48462844725714 L 111 512.3841076874571 L 112 513.281035524757 L 113 514.1753912276918 L 114 515.0671541242478 L 115 515.9563036023419 L 116 516.8428191102968 L 117 517.7266801573164 L 118 518.6078663139594 L 119 519.4863572126118 L 120 520.3621325479571 L 121 521.2351720774462 L 122 522.105455621765 L 123 522.9729630653006 L 124 523.8376743566068 L 125 524.6995695088673 L 126 525.5586286003573 L 127 526.4148317749047 L 128 527.2681592423485 L 129 528.1185912789962 L 130 528.9661082280803 L 131 529.8106905002119 L 132 530.652318573834 L 133 531.4909729956725 L 134 532.3266343811856 L 135 533.1592834150126 L 136 533.9889008514194 L 137 534.8154675147443 L 138 535.6389642998404 L 139 536.4593721725176 L 140 537.2766721699826 L 141 538.090845401277 L 142 538.9018730477139 L 143 539.7097363633135 L 144 540.5144166752352 L 145 541.3158953842105 L 146 542.1141539649722 L 147 542.9091739666823 L 148 543.7009370133592 L 149 544.4894248043022 L 150 545.2746191145142 L 151 546.056501795123 L 152 546.8350547738016 L 153 547.6102600551844 L 154 548.3820997212846 L 155 549.1505559319077 L 156 549.9156109250634 L 157 550.6772470173777 L 158 551.4354466044995 L 159 552.1901921615092 L 160 552.9414662433232 L 161 553.6892514850969 L 162 554.4335306026261 L 163 555.174286392747 L 164 555.9115017337335 L 165 556.6451595856927 L 166 557.3752429909591 L 167 558.1017350744867 L 168 558.8246190442383 L 169 559.5438781915747 L 170 560.2594958916399 L 171 560.9714556037461 L 172 561.6797408717556 L 173 562.3843353244614 L 174 563.0852226759653 L 175 563.7823867260545 L 176 564.4758113605762 L 177 565.1654805518103 L 178 565.8513783588387 L 179 566.5334889279152 L 180 567.2117964928308 L 181 567.8862853752792 L 182 568.5569399852179 L 183 569.2237448212298 L 184 569.8866844708807 L 185 570.5457436110759 L 186 571.2009070084141 L 187 571.8521595195397 L 188 572.4994860914928 L 189 573.1428717620572 L 190 573.782301660106 L 191 574.4177610059455 L 192 575.0492351116569 L 193 575.6767093814358 L 194 576.3001693119288 L 195 576.9196004925705 L 196 577.5349886059141 L 197 578.146319427965 L 198 578.7535788285072 L 199 579.3567527714318 L 200 579.9558273150602 L 201 580.5507886124666 L 202 581.1416229117985 L 203 581.7283165565941 L 204 582.3108559860983 L 205 582.8892277355757 L 206 583.4634184366222 L 207 584.0334148174738 L 208 584.5992037033136 L 209 585.160772016576 L 210 585.7181067772491 L 211 586.2711951031749 L 212 586.8200242103469 L 213 587.3645814132054 L 214 587.904854124931 L 215 588.4408298577356 L 216 588.9724962231505 L 217 589.4998409323135 L 218 590.0228517962523 L 219 590.5415167261667 L 220 591.0558237337076 L 221 591.5657609312544 L 222 592.0713165321898 L 223 592.572478851172 L 224 593.0692363044049 L 225 593.5615774099057 L 226 594.0494907877709 L 227 594.5329651604384 L 228 595.011989352949 L 229 595.486552293204 L 230 595.9566430122218 L 231 596.4222506443909 L 232 596.8833644277214 L 233 597.3399737040934 L 234 597.7920679195037 L 235 598.2396366243094 L 236 598.6826694734699 L 237 599.1211562267855 L 238 599.5550867491345 L 239 599.9844510107073 L 240 600.4092390872379 L 241 600.8294411602338 L 242 601.245047517203 L 243 601.656048551878 L 244 602.062434764438 L 245 602.4641967617285 L 246 602.8613252574789 L 247 603.2538110725163 L 248 603.6416451349781 L 249 604.0248184805221 L 250 604.4033222525325 L 251 604.777147702326 L 252 605.1462861893533 L 253 605.5107291813987 L 254 605.8704682547775 L 255 606.225495094531 L 256 606.5758014946181 L 257 606.9213793581056 L 258 607.2622206973547 L 259 607.5983176342062 L 260 607.9296624001622 L 261 608.256247336566 L 262 608.5780648947789 L 263 608.8951076363546 L 264 609.2073682332111 L 265 609.5148394678008 L 266 609.8175142332761 L 267 610.1153855336547 L 268 610.4084464839809 L 269 610.6966903104844 L 270 610.980110350738 L 271 611.2587000538099 L 272 611.5324529804166 L 273 611.8013628030711 L 274 612.0654233062293 L 275 612.3246283864332 L 276 612.578972052453 L 277 612.8284484254243 L 278 613.0730517389852 L 279 613.3127763394086 L 280 613.5476166857336 L 281 613.7775673498929 L 282 614.0026230168389 L 283 614.2227784846665 L 284 614.4380286647325 L 285 614.6483685817745 L 286 614.8537933740248 L 287 615.0542982933233 L 288 615.2498787052273 L 289 615.4405300891183 L 290 615.6262480383068 L 291 615.8070282601341 L 292 615.982866576071 L 293 616.1537589218156 L 294 616.3197013473855 L 295 616.4806900172109 L 296 616.6367212102219 L 297 616.7877913199354 L 298 616.9338968545379 L 299 617.0750344369662 L 300 617.2112008049862 L 301 617.3423928112671 L 302 617.4686074234554 L 303 617.5898417242439 L 304 617.7060929114399 L 305 617.8173582980298 L 306 617.9236353122408 L 307 618.0249214976006 L 308 618.1212145129948 L 309 618.2125121327199 L 310 618.2988122465354 L 311 618.3801128597123 L 312 618.4564120930798 L 313 618.527708183068 L 314 618.5939994817488 L 315 618.6552844568747 L 316 618.7115616919131 L 317 618.7628298860798 L 318 618.8090878543688 L 319 618.8503345275802 L 320 618.8865689523439 L 321 618.9177902911424 L 322 618.9439978223302 L 323 618.9651909401499 L 324 618.9813691547469 L 325 618.99253209218 L 326 618.9986794944308 L 327 618.9998112194089 L 328 618.995927240956 L 329 618.9870276488457 L 330 618.973112648782 L 331 618.9541825623942 L 332 618.9302378272297 L 333 618.9012789967437 L 334 618.8673067402868 L 335 618.8283218430888 L 336 618.7843252062414 L 337 618.7353178466765 L 338 618.6813008971435 L 339 618.6222756061826 L 340 618.5582433380962 L 341 618.4892055729173 L 342 618.415163906375 L 343 618.3361200498583 L 344 618.2520758303758 L 345 618.1630331905139 L 346 618.0689941883918 L 347 617.9699609976137 L 348 617.8659359072194 L 349 617.75692132163 L 350 617.6429197605936 L 351 617.5239338591264 L 352 617.399966367452 L 353 617.2710201509376 L 354 617.1370981900282 L 355 616.9982035801775 L 356 616.8543395317758 L 357 616.7055093700772 L 358 616.5517165351209 L 359 616.3929645816534 L 360 616.229257179045 L 361 616.060598111206 L 362 615.8869912764985 L 363 615.7084406876468 L 364 615.5249504716443 L 365 615.3365248696583 L 366 615.1431682369321 L 367 614.9448850426836 L 368 614.7416798700034 L 369 614.5335574157473 L 370 614.3205224904289 L 371 614.1025800181077 L 372 613.8797350362756 L 373 613.6519926957408 L 374 613.4193582605077 L 375 613.1818371076564 L 376 612.9394347272178 L 377 612.6921567220468 L 378 612.4400088076927 L 379 612.1829968122673 L 380 611.9211266763102 L 381 611.6544044526511 L 382 611.3828363062705 L 383 611.1064285141567 L 384 610.825187465161 L 385 610.5391196598496 L 386 610.2482317103542 L 387 609.9525303402182 L 388 609.6520223842421 L 389 609.3467147883248 L 390 609.0366146093036 L 391 608.7217290147909 L 392 608.4020652830085 L 393 608.0776308026194 L 394 607.7484330725571 L 395 607.414479701852 L 396 607.0757784094558 L 397 606.7323370240631 L 398 606.3841634839303 L 399 606.0312658366921 L 400 605.6736522391756 L 401 605.3113309572117 L 402 604.944310365444 L 403 604.5725989471357 L 404 604.1962052939723 L 405 603.8151381058647 L 406 603.4294061907467 L 407 603.039018464372 L 408 602.6439839501082 L 409 602.2443117787283 L 410 601.840011188199 L 411 601.4310915234679 L 412 601.0175622362473 L 413 600.5994328847955 L 414 600.1767131336962 L 415 599.7494127536348 L 416 599.317541621173 L 417 598.8811097185197 L 418 598.4401271333014 L 419 597.9946040583282 L 420 597.5445507913583 L 421 597.0899777348604 L 422 596.6308953957729 L 423 596.1673143852607 L 424 595.6992454184713 L 425 595.2266993142853 L 426 594.7496869950676 L 427 594.2682194864146 L 428 593.7823079168993 L 429 593.2919635178141 L 430 592.7971976229111 L 431 592.2980216681403 L 432 591.7944471913854 L 433 591.2864858321966 L 434 590.7741493315222 L 435 590.2574495314366 L 436 589.7363983748671 L 437 589.2110079053178 L 438 588.6812902665906 L 439 588.1472577025055 L 440 587.6089225566166 L 441 587.0662972719277 L 442 586.519394390604 L 443 585.9682265536828 L 444 585.4128065007806 L 445 584.853147069799 L 446 584.2892611966286 L 447 583.7211619148486 L 448 583.1488623554269 L 449 582.5723757464159 L 450 581.9917154126467 L 451 581.4068947754215 L 452 580.8179273522032 L 453 580.2248267563027 L 454 579.6276066965647 L 455 579.0262809770504 L 456 578.4208634967189 L 457 577.8113682491056 L 458 577.1978093219986 L 459 576.580200897114 L 460 575.9585572497664 L 461 575.3328927485409 L 462 574.7032218549595 L 463 574.0695591231477 L 464 573.4319191994977 L 465 572.7903168223297 L 466 572.1447668215521 L 467 571.4952841183176 L 468 570.8418837246788 L 469 570.1845807432419 L 470 569.5233903668161 L 471 568.8583278780638 L 472 568.189408649147 L 473 567.5166481413714 L 474 566.84006190483 L 475 566.1596655780427 L 476 565.4754748875954 L 477 564.7875056477767 L 478 564.0957737602118 L 479 563.4002952134952 L 480 562.7010860828211 L 481 561.9981625296123 L 482 561.2915408011457 L 483 560.581237230178 L 484 559.8672682345664 L 485 559.1496503168914 L 486 558.4284000640736 L 487 557.7035341469908 L 488 556.9750693200929 L 489 556.2430224210148 L 490 555.5074103701861 L 491 554.7682501704419 L 492 554.0255589066278 L 493 553.2793537452064 L 494 552.52965193386 L 495 551.7764708010918 L 496 551.0198277558259 L 497 550.2597402870039 L 498 549.4962259631822 L 499 548.7293024321243 L 500 547.9589874203941 L 501 547.1852987329455 L 502 546.4082542527112 L 503 545.6278719401889 L 504 544.8441698330272 L 505 544.0571660456071 L 506 543.2668787686248 L 507 542.4733262686703 L 508 541.6765268878057 L 509 540.876499043141 L 510 540.0732612264085 L 511 539.2668320035351 L 512 538.4572300142137 L 513 537.644473971472 L 514 536.82858266124 L 515 536.0095749419161 L 516 535.1874697439304 L 517 534.3622860693081 L 518 533.5340429912299 L 519 532.7027596535909 L 520 531.8684552705586 L 521 531.0311491261282 L 522 530.1908605736775 L 523 529.3476090355191 L 524 528.5014140024517 L 525 527.6522950333094 L 526 526.80027175451 L 527 525.9453638596009 L 528 525.0875911088043 L 529 524.2269733285599 L 530 523.3635304110676 L 531 522.4972823138265 L 532 521.6282490591748 L 533 520.756450733826 L 534 519.8819074884052 L 535 519.0046395369835 L 536 518.12466715661 L 537 517.242010686844 L 538 516.356690529284 L 539 515.4687271470973 L 540 514.5781410645454 L 541 513.6849528665115 L 542 512.7891831980229 L 543 511.89085276377546 L 544 510.98998232765337 L 545 510.08659271225076 L 546 509.18070479838934 L 547 508.27233952463627 L 548 507.36151788682014 L 549 506.44826093754534 L 550 505.53258978570614 L 551 504.61452559599775 L 552 503.69408958842826 L 553 502.7713030378274 L 554 501.8461872733551 L 555 500.9187636780082 L 556 499.9890536881268 L 557 499.057078792898 L 558 498.12286053386 L 559 497.1864205044034 L 560 496.2477803492728 L 561 495.3069617640661 L 562 494.3639864947331 L 563 493.41887633707296 L 564 492.4716531362302 L 565 491.5223387861902 L 566 490.5709552292725 L 567 489.61752445562445 L 568 488.6620685027119 L 569 487.7046094548112 L 570 486.74516944249706 L 571 485.7837706421327 L 572 484.820435275356 L 573 483.85518560856656 L 574 482.8880439524109 L 575 481.9190326612665 L 576 480.9481741327256 L 577 479.97549080707705 L 578 479.0010051667878 L 579 478.0247397359833 L 580 477.04671707992696 L 581 476.0669598044981 L 582 475.08549055567016 L 583 474.10233201898666 L 584 473.1175069190372 L 585 472.13103801893203 L 586 471.14294811977607 L 587 470.15326006014163 L 588 469.1619967155408 L 589 468.1691809978966 L 590 467.17483585501316 L 591 466.17898427004593 L 592 465.1816492609696 L 593 464.182853880047 L 594 463.18262121329525 L 595 462.1809743799532 L 596 461.1779365319463 L 597 460.1735308533517 L 598 459.1677805598623 L 599 458.1607088982506 L 600 457.15233914583087 L 601 456.14269460992097 L 602 455.13179862730436 L 603 454.1196745636899 L 604 453.10634581317254 L 605 452.09183579769166 L 606 451.07616796649086 L 607 450.05936579557476 L 608 449.04145278716743 L 609 448.02245246916823 L 610 447.00238839460883 L 611 445.9812841411082 L 612 444.9591633103279 L 613 443.9360495274266 L 614 442.91196644051377 L 615 441.88693772010356 L 616 440.8609870585668 L 617 439.8341381695846 L 618 438.80641478759895 L 619 437.7778406672653 L 620 436.7484395829025 L 621 435.7182353279441 L 622 434.6872517143877 L 623 433.65551257224513 L 624 432.62304174899117 L 625 431.58986310901287 L 626 430.5560005330575 L 627 429.5214779176806 L 628 428.4863191746941 L 629 427.4505482306128 L 630 426.41418902610246 L 631 425.3772655154252 L 632 424.33980166588697 L 633 423.30182145728253 L 634 422.2633488813421 L 635 421.2244079411761 L 636 420.185022650721 L 637 419.1452170341836 L 638 418.1050151254861 L 639 417.0644409677109 L 640 416.02351861254397 L 641 414.98227211971994 L 642 413.9407255564651 L 643 412.89890299694196 L 644 411.8568285216919 L 645 410.8145262170795 L 646 409.772020174735 L 647 408.7293344909981 L 648 407.6864932663604 L 649 406.64352060490893 L 650 405.6004406137685 L 651 404.55727740254486 L 652 403.5140550827674 L 653 402.4707977673314 L 654 401.42752956994144 L 655 400.38427460455324 L 656 399.34105698481704 L 657 398.29790082351946 L 658 397.254830232027 L 659 396.21186931972795 L 660 395.1690421934759 L 661 394.12637295703166 L 662 393.083885710507 L 663 392.04160454980683 L 664 390.9995535660729 L 665 389.95775684512677 L 666 388.9162384669126 L 667 387.8750225049414 L 668 386.83413302573376 L 669 385.7935940882645 L 670 384.7534297434055 L 671 383.71366403337083 L 672 382.67432099116024 L 673 381.6354246400043 L 674 380.5969989928085 L 675 379.55906805159884 L 676 378.52165580696646 L 677 377.48478623751373 L 678 376.44848330929955 L 679 375.4127709752854 L 680 374.3776731747822 L 681 373.34321383289625 L 682 372.309416859977 L 683 371.2763061510635 L 684 370.24390558533315 L 685 369.2122390255487 L 686 368.18133031750756 L 687 367.15120328948996 L 688 366.1218817517088 L 689 365.09338949575874 L 690 364.06575029406656 L 691 363.038987899342 L 692 362.01312604402773 L 693 360.98818843975226 L 694 359.9641987767804 L 695 358.9411807234669 L 696 357.9191579257085 L 697 356.898154006398 L 698 355.87819256487774 L 699 354.85929717639465 L 700 353.84149139155477 L 701 352.82479873577955 L 702 351.80924270876125 L 703 350.79484678392066 L 704 349.7816344078641 L 705 348.76962899984113 L 706 347.7588539512041 L 707 346.74933262486667 L 708 345.7410883547644 L 709 344.73414444531477 L 710 343.7285241708794 L 711 342.72425077522513 L 712 341.72134747098755 L 713 340.719837439134 L 714 339.719743828428 L 715 338.7210897548939 L 716 337.7238983012831 L 717 336.7281925165401 L 718 335.73399541526965 L 719 334.7413299772053 L 720 333.75021914667764 L 721 332.7606858320847 L 722 331.7727529053615 L 723 330.7864432014524 L 724 329.8017795177825 L 725 328.81878461373117 L 726 327.83748121010575 L 727 326.8578919886166 L 728 325.8800395913525 L 729 324.9039466202577 L 730 323.9296356366094 L 731 322.95712916049587 L 732 321.98644967029657 L 733 321.017619602162 L 734 320.0506613494956 L 735 319.0855972624357 L 736 318.1224496473395 L 737 317.16124076626664 L 738 316.20199283646565 L 739 315.2447280298594 L 740 314.2894684725336 L 741 313.33623624422455 L 742 312.3850533778094 L 743 311.43594185879647 L 744 310.4889236248173 L 745 309.5440205651195 L 746 308.6012545200609 L 747 307.6606472806047 L 748 306.7222205878155 L 749 305.7859961323575 L 750 304.8519955539923 L 751 303.92024044107933 L 752 302.9907523300765 L 753 302.06355270504264 L 754 301.13866299714084 L 755 300.21610458414307 L 756 299.29589878993613 L 757 298.37806688402856 L 758 297.4626300810594 L 759 296.5496095403073 L 760 295.63902636520214 L 761 294.7309016028365 L 762 293.82525624347994 L 763 292.92211122009303 L 764 292.0214874078443 L 765 291.12340562362704 L 766 290.2278866255787 L 767 289.33495111260066 L 768 288.4446197238801 L 769 287.556913038413 L 770 286.6718515745278 L 771 285.7894557894123 L 772 284.9097460786395 L 773 284.03274277569756 L 774 283.15846615151844 L 775 282.2869364140106 L 776 281.4181737075909 L 777 280.5521981127197 L 778 279.6890296454362 L 779 278.8286882568965 L 780 277.9711938329114 L 781 277.1165661934878 L 782 276.2648250923701 L 783 275.4159902165833 L 784 274.5700811859788 L 785 273.72711755278 L 786 272.8871188011311 L 787 272.0501043466463 L 788 271.21609353596125 L 789 270.3851056462855 L 790 269.5571598849578 L 791 268.73227538900096 L 792 267.9104712246806 L 793 267.09176638706356 L 794 266.2761797995796 L 795 265.46373031358377 L 796 264.6544367079201 L 797 263.8483176884886 L 798 263.0453918878118 L 799 262.24567786460506 L 800 261.44919410334694 L 801 260.6559590138524 L 802 259.86599093084664 L 803 259.0793081135422 L 804 258.295928745216 L 805 257.51587093278977 L 806 256.7391527064113 L 807 255.96579201903748 L 808 255.19580674601966 L 809 254.42921468469018 L 810 253.66603355395134 L 811 252.90628099386544 L 812 252.1499745652475 L 813 251.39713174925896 L 814 250.64776994700398 L 815 249.9019064791268 L 816 249.15955858541196 L 817 248.4207434243852 L 818 247.68547807291745 L 819 246.95377952582953 L 820 246.22566469549992 L 821 245.50115041147353 L 822 244.78025342007248 L 823 244.06299038400968 L 824 243.34937788200293 L 825 242.6394324083924 L 826 241.93317037275884 L 827 241.23060809954475 L 828 240.53176182767663 L 829 239.83664771019 L 830 239.14528181385572 L 831 238.457680118809 L 832 237.7738585181796 L 833 237.0938328177248 L 834 236.4176187354641 L 835 235.74523190131572 L 836 235.0766878567351 L 837 234.4120020543564 L 838 233.7511898576347 L 839 233.09426654049128 L 840 232.44124728695996 L 841 231.79214719083706 L 842 231.14698125533178 L 843 230.50576439271993 L 844 229.8685114239985 L 845 229.23523707854412 L 846 228.60595599377177 L 847 227.98068271479696 L 848 227.35943169409924 L 849 226.742217291188 L 850 226.12905377227125 L 851 225.5199553099251 L 852 224.91493598276682 L 853 224.31400977512865 L 854 223.71719057673545 L 855 223.12449218238308 L 856 222.53592829161983 L 857 221.95151250842932 L 858 221.37125834091677 L 859 220.79517920099616 L 860 220.22328840408065 L 861 219.6555991687745 L 862 219.09212461656756 L 863 218.53287777153224 L 864 217.97787156002232 L 865 217.4271188103742 L 866 216.88063225261004 L 867 216.33842451814422 L 868 215.80050813949083 L 869 215.26689554997424 L 870 214.73759908344138 L 871 214.2126309739772 L 872 213.69200335562155 L 873 213.17572826208868 L 874 212.66381762648936 L 875 212.15628328105458 L 876 211.65313695686262 L 877 211.1543902835676 L 878 210.66005478913078 L 879 210.17014189955384 L 880 209.6846629386151 L 881 209.2036291276078 L 882 208.72705158508055 L 883 208.25494132658008 L 884 207.78730926439738 L 885 207.32416620731476 L 886 206.86552286035644 L 887 206.41138982454095 L 888 205.9617775966359 L 889 205.51669656891582 L 890 205.07615702892164 L 891 204.64016915922306 L 892 204.2087430371828 L 893 203.78188863472437 L 894 203.3596158181009 L 895 202.94193434766768 L 896 202.52885387765585 L 897 202.12038395594996 L 898 201.71653402386698 L 899 201.317313415938 L 900 200.92273135969265 L 901 200.5327969754455 L 902 200.14751927608575 L 903 199.76690716686846 L 904 199.39096944520904 L 905 199.0197148004795 L 906 198.65315181380814 L 907 198.29128895788074 L 908 197.93413459674508 L 909 197.58169698561724 L 910 197.23398427069114 L 911 196.8910044889501 L 912 196.55276556798103 L 913 196.21927532579133 L 914 195.89054147062794 L 915 195.56657160079945 L 916 195.24737320450038 L 917 194.93295365963803 L 918 194.62332023366196 L 919 194.3184800833961 L 920 194.01844025487324 L 921 193.72320768317223 L 922 193.43278919225762 L 923 193.14719149482195 L 924 192.86642119213067 L 925 192.59048477386952 L 926 192.31938861799446 L 927 192.05313899058424 L 928 191.79174204569574 L 929 191.53520382522152 L 930 191.28353025875032 L 931 191.0367271634299 L 932 190.7948002438327 L 933 190.5577550918238 L 934 190.32559718643193 L 935 190.09833189372253 L 936 189.87596446667396 L 937 189.65850004505594 L 938 189.44594365531094 L 939 189.2383002104377 L 940 189.03557450987788 L 941 188.83777123940516 L 942 188.64489497101675 L 943 188.45695016282795 L 944 188.2739411589688 L 945 188.09587218948397 L 946 187.92274737023484 L 947 187.75457070280441 L 948 187.59134607440475 L 949 187.43307725778715 L 950 187.27976791115506 L 951 187.13142157807937 L 952 186.9880416874166 L 953 186.84963155322953 L 954 186.71619437471074 L 955 186.58773323610865 L 956 186.4642511066561 L 957 186.34575084050184 L 958 186.23223517664454 L 959 186.12370673886946 L 960 186.0201680356878 L 961 185.9216214602787 L 962 185.828069290434 L 963 185.73951368850558 L 964 185.65595670135522 L 965 185.57740026030757 L 966 185.50384618110525 L 967 185.43529616386695 L 968 185.3717517930483 L 969 185.313214537405 L 970 185.25968574995903 L 971 185.21116666796738 L 972 185.16765841289327 L 973 185.12916199038057 L 974 185.0956782902301 L 975 185.06720808637954 L 976 185.04375203688517 L 977 185.0253106839069 L 978 185.01188445369553 L 979 185.00347365658314 L 980 185.00007848697567 L 981 185.00169902334864 L 982 185.00833522824516 L 983 185.01998694827697 L 984 185.03665391412778 L 985 185.0583357405597 L 986 185.08503192642195 L 987 185.11674185466268 L 988 185.153464792343 L 989 185.195199890654 L 990 185.2419461849365 L 991 185.2937025947031 L 992 185.35046792366336 L 993 185.41224085975136 L 994 185.47901997515612 L 995 185.55080372635436 L 996 185.62759045414654 L 997 185.70937838369485 L 998 185.79616562456454 L 999 185.8879501707673 L 1000 185.98472990080808 L 1001 186.08650257773348 L 1002 186.19326584918414 L 1003 186.30501724744857 L 1004 186.42175418952058 L 1005 186.54347397715873 L 1006 186.67017379694877 L 1007 186.80185072036872 L 1008 186.93850170385645 L 1009 187.0801235888802 L 1010 187.22671310201144 L 1011 187.37826685500056 L 1012 187.53478134485516 L 1013 187.69625295392117 L 1014 187.86267794996627 L 1015 188.0340524862663 L 1016 188.210372601694 L 1017 188.3916342208108 L 1018 188.5778331539609 L 1019 188.76896509736807 L 1020 188.9650256332352 L 1021 189.16601022984625 L 1022 189.37191424167133 L 1023 189.58273290947372 L 1024 189.79846136042013 L 1025 190.01909460819311 L 1026 190.24462755310654 L 1027 190.47505498222327 L 1028 190.71037156947585 L 1029 190.95057187578936 L 1030 191.19565034920734 L 1031 191.4456013250202 L 1032 191.70041902589577 L 1033 191.9600975620132 L 1034 192.2246309311989 L 1035 192.49401301906553 L 1036 192.7682375991529 L 1037 193.0472983330723 L 1038 193.33118877065266 L 1039 193.61990235009006 L 1040 193.91343239809896 L 1041 194.21177213006666 L 1042 194.5149146502102 L 1043 194.8228529517354 L 1044 195.13557991699938 L 1045 195.45308831767457 L 1046 195.775370814916 L 1047 196.10241995953075 L 1048 196.43422819215058 L 1049 196.77078784340617 L 1050 197.11209113410453 L 1051 197.45813017540888 L 1052 197.80889696902108 L 1053 198.16438340736624 L 1054 198.5245812737803 L 1055 198.88948224269993 L 1056 199.25907787985483 L 1057 199.6333596424631 L 1058 200.012318879428 L 1059 200.39594683153857 L 1060 200.78423463167158 L 1061 201.17717330499704 L 1062 201.5747537691851 L 1063 201.97696683461623 L 1064 202.38380320459353 L 1065 202.79525347555796 L 1066 203.21130813730514 L 1067 203.6319575732055 L 1068 204.0571920604266 L 1069 204.48700177015755 L 1070 204.92137676783673 L 1071 205.36030701338083 L 1072 205.80378236141726 L 1073 206.25179256151844 L 1074 206.70432725843915 L 1075 207.16137599235535 L 1076 207.62292819910616 L 1077 208.08897321043804 L 1078 208.55950025425173 L 1079 209.03449845485042 L 1080 209.5139568331919 L 1081 209.99786430714195 L 1082 210.48620969173047 L 1083 210.97898169941035 L 1084 211.476168940318 L 1085 211.97775992253665 L 1086 212.48374305236212 L 1087 212.99410663457095 L 1088 213.50883887269023 L 1089 214.0279278692707 L 1090 214.55136162616142 L 1091 215.07912804478755 L 1092 215.61121492642954 L 1093 216.1476099725052 L 1094 216.68830078485414 L 1095 217.23327486602403 L 1096 217.7825196195601 L 1097 218.33602235029542 L 1098 218.89377026464493 L 1099 219.45575047090085 L 1100 220.02194997953114 L 1101 220.5923557034791 L 1102 221.1669544584661 L 1103 221.74573296329655 L 1104 222.3286778401648 L 1105 222.91577561496396 L 1106 223.50701271759786 L 1107 224.10237548229435 L 1108 224.70185014792128 L 1109 225.30542285830487 L 1110 225.91307966254942 L 1111 226.52480651536013 L 1112 227.14058927736758 L 1113 227.76041371545492 L 1114 228.38426550308625 L 1115 229.0121302206382 L 1116 229.64399335573296 L 1117 230.27984030357425 L 1118 230.91965636728406 L 1119 231.56342675824297 L 1120 232.21113659643177 L 1121 232.8627709107753 L 1122 233.51831463948898 L 1123 234.17775263042617 L 1124 234.84106964142893 L 1125 235.50825034068012 L 1126 236.17927930705812 L 1127 236.85414103049274 L 1128 237.53281991232396 L 1129 238.21530026566253 L 1130 238.90156631575277 L 1131 239.5916022003366 L 1132 240.28539197002067 L 1133 240.9829195886448 L 1134 241.68416893365253 L 1135 242.3891237964644 L 1136 243.0977678828517 L 1137 243.8100848133137 L 1138 244.52605812345584 L 1139 245.24567126437097 L 1140 245.968907603021 L 1141 246.69575042262184 L 1142 247.42618292302964 L 1143 248.1601882211295 L 1144 248.89774935122495 L 1145 249.63884926543076 L 1146 250.38347083406669 L 1147 251.13159684605324 L 1148 251.8832100093102 L 1149 252.63829295115545 L 1150 253.39682821870693 L 1151 254.1587982792859 L 1152 254.92418552082273 L 1153 255.69297225226316 L 1154 256.4651407039777 L 1155 257.24067302817195 L 1156 258.0195512993002 L 1157 258.80175751447825 L 1158 259.58727359390053 L 1159 260.37608138125773 L 1160 261.1681626441564 L 1161 261.9634990745406 L 1162 262.7620722891147 L 1163 263.5638638297687 L 1164 264.3688551640043 L 1165 265.1770276853641 L 1166 265.98836271386085 L 1167 266.8028414964096 L 1168 267.620445207261 L 1169 268.441154948437 L 1170 269.2649517501667 L 1171 270.0918165713255 L 1172 270.9217302998751 L 1173 271.7546737533048 L 1174 272.590627679076 L 1175 273.4295727550658 L 1176 274.27148959001454 L 1177 275.11635872397346 L 1178 275.9641606287554 L 1179 276.8148757083849 L 1180 277.668484299552 L 1181 278.5249666720665 L 1182 279.3843030293143 L 1183 280.24647350871436 L 1184 281.1114581821782 L 1185 281.9792370565704 L 1186 282.8497900741708 L 1187 283.7230971131384 L 1188 284.5991379879757 L 1189 285.47789244999586 L 1190 286.35934018779045 L 1191 287.24346082769944 L 1192 288.1302339342812 L 1193 289.0196390107856 L 1194 289.91165549962744 L 1195 290.806262782862 L 1196 291.7034401826609 L 1197 292.6031669617907 L 1198 293.50542232409174 L 1199 294.4101854149591 L 1200 295.31743532182486 L 1201 296.22715107464086 L 1202 297.1393116463638 L 1203 298.05389595344104 L 1204 298.97088285629854 L 1205 299.8902511598285 L 1206 300.81197961388 L 1207 301.73604691374953 L 1208 302.6624317006746 L 1209 303.591112562326 L 1210 304.52206803330347 L 1211 305.455276595632 L 1212 306.3907166792585 L 1213 307.3283666625515 L 1214 308.2682048727995 L 1215 309.2102095867131 L 1216 310.15435903092623 L 1217 311.10063138250035 L 1218 312.0490047694279 L 1219 312.99945727113845 L 1220 313.9519669190049 L 1221 314.90651169685236 L 1222 315.8630695414654 L 1223 316.82161834309915 L 1224 317.7821359459901 L 1225 318.74460014886785 L 1226 319.70898870546915 L 1227 320.67527932505095 L 1228 321.6434496729064 L 1229 322.6134773708807 L 1230 323.5853399978889 L 1231 324.5590150904335 L 1232 325.5344801431238 L 1233 326.51171260919625 L 1234 327.490689901036 L 1235 328.471389390698 L 1236 329.4537884104308 L 1237 330.43786425320013 L 1238 331.42359417321376 L 1239 332.410955386448 L 1240 333.3999250711729 L 1241 334.3904803684809 L 1242 335.38259838281454 L 1243 336.3762561824965 L 1244 337.3714308002585 L 1245 338.368099233773 L 1246 339.36623844618435 L 1247 340.36582536664207 L 1248 341.3668368908331 L 1249 342.36924988151634 L 1250 343.3730411690575 L 1251 344.37818755196423 L 1252 345.3846657974234 L 1253 346.3924526418367 L 1254 347.40152479135935 L 1255 348.41185892243794 L 1256 349.4234316823503 L 1257 350.43621968974435 L 1258 351.450199535179 L 1259 352.4653477816652 L 1260 353.4816409652079 L 1261 354.4990555953477 L 1262 355.5175681557047 L 1263 356.5371551045211 L 1264 357.5577928752061 L 1265 358.5794578768805 L 1266 359.6021264949216 L 1267 360.62577509150935 L 1268 361.6503800061723 L 1269 362.67591755633555 L 1270 363.7023640378666 L 1271 364.7296957256244 L 1272 365.7578888740072 L 1273 366.78691971750203 L 1274 367.81676447123294 L 1275 368.8473993315118 L 1276 369.8788004763877 L 1277 370.91094406619817 L 1278 371.94380624412014 L 1279 372.97736313672095 L 1280 374.01159085451036 L 1281 375.04646549249276 L 1282 376.0819631307201 L 1283 377.11805983484396 L 1284 378.15473165666936 L 1285 379.1919546347079 L 1286 380.2297047947324 L 1287 381.26795815033 L 1288 382.30669070345704 L 1289 383.345878444994 L 1290 384.3854973552998 L 1291 385.425523404768 L 1292 386.4659325543812 L 1293 387.50670075626704 L 1294 388.547803954254 L 1295 389.58921808442807 L 1296 390.6309190756878 L 1297 391.67288285030156 L 1298 392.71508532446336 L 1299 393.75750240885077 L 1300 394.8001100091802 L 1301 395.84288402676464 L 1302 396.88580035907063 L 1303 397.9288349002751 L 1304 398.9719635418232 L 1305 400.01516217298445 L 1306 401.058406681411 L 1307 402.1016729536943 L 1308 403.1449368759232 L 1309 404.18817433424056 L 1310 405.2313612154009 L 1311 406.2744734073278 L 1312 407.3174867996714 L 1313 408.3603772843654 L 1314 409.4031207561842 L 1315 410.44569311330025 L 1316 411.4880702578411 L 1317 412.53022809644693 L 1318 413.5721425408263 L 1319 414.6137895083138 L 1320 415.65514492242613 L 1321 416.6961847134197 L 1322 417.7368848188454 L 1323 418.77722118410594 L 1324 419.8171697630111 L 1325 420.8567065183347 L 1326 421.8958074223686 L 1327 422.9344484574791 L 1328 423.97260561666195 L 1329 425.0102549040969 L 1330 426.0473723357031 L 1331 427.0839339396924 L 1332 428.1199157571242 L 1333 429.1552938424588 L 1334 430.1900442641115 L 1335 431.22414310500517 L 1336 432.2575664631229 L 1337 433.2902904520609 L 1338 434.3222912015811 L 1339 435.3535448581616 L 1340 436.3840275855489 L 1341 437.4137155653087 L 1342 438.4425849973761 L 1343 439.4706121006068 L 1344 440.4977731133251 L 1345 441.5240442938744 L 1346 442.5494019211652 L 1347 443.5738222952246 L 1348 444.59728173774226 L 1349 445.61975659261924 L 1350 446.64122322651383 L 1351 447.6616580293888 L 1352 448.681037415056 L 1353 449.6993378217221 L 1354 450.7165357125334 L 1355 451.73260757611916 L 1356 452.74752992713616 L 1357 453.76127930681025 L 1358 454.7738322834794 L 1359 455.7851654531348 L 1360 456.79525543996283 L 1361 457.8040788968838 L 1362 458.8116125060929 L 1363 459.8178329795982 L 1364 460.82271705976024 L 1365 461.826241519828 L 1366 462.8283831644768 L 1367 463.8291188303442 L 1368 464.82842538656513 L 1369 465.8262797353073 L 1370 466.822658812304 L 1371 467.8175395873879 L 1372 468.81089906502314 L 1373 469.8027142848373 L 1374 470.79296232215137 L 1375 471.78162028851 L 1376 472.7686653322104 L 1377 473.7540746388311 L 1378 474.73782543175855 L 1379 475.7198949727137 L 1380 476.70026056227795 L 1381 477.6788995404173 L 1382 478.6557892870071 L 1383 479.63090722235336 L 1384 480.604230807716 L 1385 481.575737545829 L 1386 482.54540498142103 L 1387 483.51321070173395 L 1388 484.479132337041 L 1389 485.44314756116376 L 1390 486.40523409198886 L 1391 487.365369691982 L 1392 488.3235321687025 L 1393 489.27969937531634 L 1394 490.23384921110767 L 1395 491.1859596219902 L 1396 492.13600860101633 L 1397 493.0839741888862 L 1398 494.02983447445496 L 1399 494.97356759524 L 1400 495.91515173792516 L 1401 496.8545651388656 L 1402 497.7917860845906 L 1403 498.72679291230605 L 1404 499.65956401039404 L 1405 500.59007781891324 L 1406 501.51831283009705 L 1407 502.44424758885043 L 1408 503.36786069324666 L 1409 504.28913079502075 L 1410 505.20803660006385 L 1411 506.12455686891485 L 1412 507.0386704172523 L 1413 507.95035611638264 L 1414 508.8595928937295 L 1415 509.7663597333204 L 1416 510.67063567627326 L 1417 511.57239982127953 L 1418 512.4716313250883 L 1419 513.3683094029878 L 1420 514.2624133292857 L 1421 515.1539224377883 L 1422 516.0428161222783 L 1423 516.9290738369907 L 1424 517.8126750970879 L 1425 518.6935994791336 L 1426 519.5718266215642 L 1427 520.4473362251598 L 1428 521.3201080535131 L 1429 522.1901219334977 L 1430 523.0573577557341 L 1431 523.9217954750537 L 1432 524.7834151109639 L 1433 525.6421967481078 L 1434 526.4981205367268 L 1435 527.3511666931172 L 1436 528.2013155000891 L 1437 529.0485473074209 L 1438 529.8928425323151 L 1439 530.7341816598491 L 1440 531.5725452434274 L 1441 532.4079139052308 L 1442 533.2402683366645 L 1443 534.0695892988039 L 1444 534.8958576228397 L 1445 535.719054210521 L 1446 536.5391600345962 L 1447 537.3561561392538 L 1448 538.1700236405594 L 1449 538.9807437268928 L 1450 539.7882976593826 L 1451 540.5926667723401 L 1452 541.3938324736891 L 1453 542.1917762453975 L 1454 542.9864796439037 L 1455 543.7779243005441 L 1456 544.5660919219772 L 1457 545.3509642906062 L 1458 546.1325232650004 L 1459 546.9107507803142 L 1460 547.6856288487056 L 1461 548.4571395597507 L 1462 549.225265080858 L 1463 549.9899876576814 L 1464 550.7512896145296 L 1465 551.5091533547752 L 1466 552.2635613612613 L 1467 553.0144961967057 L 1468 553.761940504106 L 1469 554.505877007138 L 1470 555.246288510557 L 1471 555.9831579005944 L 1472 556.7164681453539 L 1473 557.4462022952046 L 1474 558.1723434831729 L 1475 558.8948749253325 L 1476 559.6137799211918 L 1477 560.3290418540814 L 1478 561.0406441915363 L 1479 561.7485704856792 L 1480 562.4528043736 L 1481 563.1533295777349 L 1482 563.8501299062418 L 1483 564.5431892533749 L 1484 565.2324915998568 L 1485 565.918021013249 L 1486 566.5997616483204 L 1487 567.2776977474125 L 1488 567.9518136408049 L 1489 568.6220937470763 L 1490 569.288522573466 L 1491 569.9510847162309 L 1492 570.6097648610016 L 1493 571.264547783137 L 1494 571.915418348076 L 1495 572.5623615116866 L 1496 573.2053623206149 L 1497 573.8444059126294 L 1498 574.4794775169656 L 1499 575.1105624546669 L 1500 575.737646138924 L 1501 576.3607140754116 L 1502 576.9797518626242 L 1503 577.5947451922088 L 1504 578.205679849295 L 1505 578.8125417128243 L 1506 579.4153167558759 L 1507 580.0139910459914 L 1508 580.6085507454967 L 1509 581.1989821118216 L 1510 581.7852714978176 L 1511 582.3674053520734 L 1512 582.9453702192284 L 1513 583.519152740283 L 1514 584.0887396529077 L 1515 584.65411779175 L 1516 585.2152740887384 L 1517 585.7721955733842 L 1518 586.3248693730818 L 1519 586.8732827134058 L 1520 587.4174229184069 L 1521 587.957277410904 L 1522 588.4928337127753 L 1523 589.0240794452473 L 1524 589.5510023291797 L 1525 590.0735901853507 L 1526 590.5918309347371 L 1527 591.1057125987944 L 1528 591.6152232997333 L 1529 592.1203512607947 L 1530 592.6210848065208 L 1531 593.1174123630262 L 1532 593.6093224582651 L 1533 594.0968037222958 L 1534 594.5798448875444 L 1535 595.0584347890643 L 1536 595.5325623647956 L 1537 596.0022166558191 L 1538 596.4673868066112 L 1539 596.9280620652936" stroke-linecap="round" stroke-linejoin="round" stroke-miterlimit="10" stroke-width="21"/></g></svg>