<svg fill="#ff0066"
  xmlns="http://www.w3.org/2000/svg" data-name="Layer 1" viewBox="0 0 100 125" x="0px" y="0px">
  <circle cx="14.21" cy="45.7" r="2.07"/>
  <path d="M71.08,28.56H91.71V24.08H71.08Zm14.11-3.65h5.74v2.76H85.19Zm-6.74,0h5.74v2.76H78.45Zm-6.74,0h5.74v2.76H71.71Z"/>
  <circle cx="34.49" cy="45.7" r="2.07"/>
  <path d="M95.35,44.74V14.38H5v71.7H95.4V44.74ZM70.83,23.83H92v5H70.83Zm20.1,6.6v2.76H85.19V30.43Zm-30.78-12h8.34v7.08H60.15Zm0,10.58h8.34v7.09H60.15ZM48.46,18.41H56.8v7.08H48.46Zm0,10.58H56.8v7.09H48.46ZM36.77,18.41H45.1v7.08H36.77Zm0,10.58H45.1v7.09H36.77ZM25.07,18.41h8.34v7.08H25.07Zm0,10.58h8.34v7.09H25.07Zm-8.91,1.68V27.91H21.9v2.76Zm5.74,2.58V36H16.16V33.25ZM15.21,16.13A4.82,4.82,0,1,1,10.39,21,4.82,4.82,0,0,1,15.21,16.13Zm-7,11.78h5.74v2.76H8.19Zm0,5.34h5.74V36H8.19ZM7.94,42H92.15v7.51H7.94Zm6,41.13H8.19V54.66h4.74V70.26h1Zm9.86,0H16.91V70.26h1V54.65h4.9V70.26h1Zm9.88,0h-6.9V70.26h1V54.64h5.9Zm9.92,0H36.65V54.63h6V70.26h1Zm9.92,0H46.57V70.26h1V54.62h5V70.26h.95Zm10,0h-7V70.26h1.05V54.61h5V70.26h1Zm10,0h-7V70.26h1V54.6h6Zm10,0h-7V54.6h6V70.26h1Zm8.87,0H86.5V70.26h1V54.6h4.9Z"/>
  <path d="M44.63,43.63A2.07,2.07,0,1,0,46.7,45.7,2.07,2.07,0,0,0,44.63,43.63Z"/>
  <path d="M15.21,23.81A2.86,2.86,0,1,0,12.35,21,2.86,2.86,0,0,0,15.21,23.81Z"/>
  <circle cx="24.35" cy="45.7" r="2.07"/>
  <circle cx="75.05" cy="45.7" r="2.07"/>
  <circle cx="64.91" cy="45.7" r="2.07"/>
  <path d="M85.19,43.63a2.07,2.07,0,1,0,2.07,2.07A2.07,2.07,0,0,0,85.19,43.63Z"/>

</svg>