<svg xmlns="http://www.w3.org/2000/svg" data-name="Layer 1" viewBox="0 0 100 125" x="0px" y="0px"><defs><style>.cls-1{fill:none;}</style></defs><path d="M17.88,29.47a1.4,1.4,0,1,1,1.4-1.4A1.4,1.4,0,0,1,17.88,29.47Zm0-2.55A1.15,1.15,0,1,0,19,28.07,1.14,1.14,0,0,0,17.88,26.92Z"/><path d="M17.88,36.06a1.4,1.4,0,1,1,1.4-1.4A1.4,1.4,0,0,1,17.88,36.06Zm0-2.55A1.15,1.15,0,1,0,19,34.66,1.14,1.14,0,0,0,17.88,33.51Z"/><path d="M17.88,42.65a1.4,1.4,0,1,1,1.4-1.4A1.4,1.4,0,0,1,17.88,42.65Zm0-2.55A1.15,1.15,0,1,0,19,41.25,1.14,1.14,0,0,0,17.88,40.1Z"/><path d="M35.68,36.06a1.4,1.4,0,1,1,1.39-1.4A1.4,1.4,0,0,1,35.68,36.06Zm0-2.55a1.15,1.15,0,1,0,1.14,1.15A1.14,1.14,0,0,0,35.68,33.51Z"/><path d="M35.68,42.65a1.4,1.4,0,1,1,1.39-1.4A1.4,1.4,0,0,1,35.68,42.65Zm0-2.55a1.15,1.15,0,1,0,1.14,1.15A1.14,1.14,0,0,0,35.68,40.1Z"/><path d="M35.68,29.47a1.4,1.4,0,1,1,1.39-1.4A1.4,1.4,0,0,1,35.68,29.47Zm0-2.55a1.15,1.15,0,1,0,1.14,1.15A1.14,1.14,0,0,0,35.68,26.92Z"/><path d="M27.56,29.47A1.4,1.4,0,1,1,29,28.07,1.4,1.4,0,0,1,27.56,29.47Zm0-2.55a1.15,1.15,0,1,0,1.14,1.15A1.14,1.14,0,0,0,27.56,26.92Z"/><path d="M27.56,36.06A1.4,1.4,0,1,1,29,34.66,1.4,1.4,0,0,1,27.56,36.06Zm0-2.55a1.15,1.15,0,1,0,1.14,1.15A1.14,1.14,0,0,0,27.56,33.51Z"/><path d="M27.56,42.65A1.4,1.4,0,1,1,29,41.25,1.4,1.4,0,0,1,27.56,42.65Zm0-2.55a1.15,1.15,0,1,0,1.14,1.15A1.14,1.14,0,0,0,27.56,40.1Z"/><path class="cls-1" d="M17.88,43.27a2,2,0,1,0-2-2A2,2,0,0,0,17.88,43.27Z"/><path class="cls-1" d="M17.88,36.68a2,2,0,1,0-2-2A2,2,0,0,0,17.88,36.68Z"/><path class="cls-1" d="M17.88,30.09a2,2,0,1,0-2-2A2,2,0,0,0,17.88,30.09Z"/><path class="cls-1" d="M27.56,43.27a2,2,0,1,0-2-2A2,2,0,0,0,27.56,43.27Z"/><path class="cls-1" d="M71,32a3.46,3.46,0,1,0-3.45,3.29A3.37,3.37,0,0,0,71,32Z"/><path class="cls-1" d="M81.63,32a3.46,3.46,0,1,0-3.45,3.29A3.37,3.37,0,0,0,81.63,32Z"/><rect class="cls-1" x="46.32" y="38.73" width="40.59" height="0.5"/><path class="cls-1" d="M40.87,21.72h-28a.5.5,0,0,0-.5.5v25a.5.5,0,0,0,.5.5h28a.5.5,0,0,0,.5-.5v-25A.51.51,0,0,0,40.87,21.72Zm-.5,25h-27v-24h27Z"/><path class="cls-1" d="M60.39,32a3.46,3.46,0,1,0-3.46,3.29A3.38,3.38,0,0,0,60.39,32Z"/><rect class="cls-1" x="74.58" y="20.47" width="10.8" height="3.51"/><rect class="cls-1" x="47.89" y="20.47" width="10.8" height="3.51"/><rect class="cls-1" x="61.26" y="20.47" width="10.8" height="3.51"/><path class="cls-1" d="M27.56,36.68a2,2,0,1,0-2-2A2,2,0,0,0,27.56,36.68Z"/><path class="cls-1" d="M35.68,43.27a2,2,0,1,0-2-2A2,2,0,0,0,35.68,43.27Z"/><circle class="cls-1" cx="35.68" cy="34.66" r="2.02"/><path class="cls-1" d="M35.68,30.09a2,2,0,1,0-2-2A2,2,0,0,0,35.68,30.09Z"/><path class="cls-1" d="M27.56,30.09a2,2,0,1,0-2-2A2,2,0,0,0,27.56,30.09Z"/><polygon class="cls-1" points="62.62 55.38 57.6 55.38 57.6 71.03 56.55 71.03 56.55 83.85 63.59 83.85 63.59 71.03 62.62 71.03 62.62 55.38"/><polygon class="cls-1" points="67.58 71.03 66.56 71.03 66.56 83.85 73.59 83.85 73.59 55.37 67.58 55.37 67.58 71.03"/><polygon class="cls-1" points="42.67 55.4 36.73 55.4 36.73 83.85 43.66 83.85 43.66 71.03 42.67 71.03 42.67 55.4"/><polygon class="cls-1" points="27.84 71.03 26.84 71.03 26.84 83.85 33.74 83.85 33.74 55.41 27.84 55.41 27.84 71.03"/><path class="cls-1" d="M51.33,41.42a3.29,3.29,0,1,0,3.45,3.29A3.38,3.38,0,0,0,51.33,41.42Z"/><polygon class="cls-1" points="22.88 55.42 17.98 55.42 17.98 71.03 16.98 71.03 16.98 83.85 23.86 83.85 23.86 71.03 22.88 71.03 22.88 55.42"/><polygon class="cls-1" points="87.58 71.03 86.58 71.03 86.58 83.85 92.45 83.85 92.45 55.36 87.58 55.37 87.58 71.03"/><polygon class="cls-1" points="82.61 55.37 76.58 55.37 76.58 83.85 83.61 83.85 83.61 71.03 82.61 71.03 82.61 55.37"/><polygon class="cls-1" points="52.63 55.39 47.63 55.39 47.63 71.03 46.65 71.03 46.65 83.85 53.59 83.85 53.59 71.03 52.63 71.03 52.63 55.39"/><rect class="cls-1" x="46.51" y="26.73" width="40.59" height="0.5"/><path class="cls-1" d="M83.58,41.42A3.29,3.29,0,1,0,87,44.71,3.38,3.38,0,0,0,83.58,41.42Z"/><path class="cls-1" d="M62.29,41.42a3.29,3.29,0,1,0,3.46,3.29A3.37,3.37,0,0,0,62.29,41.42Z"/><path class="cls-1" d="M72.84,41.42a3.29,3.29,0,1,0,3.46,3.29A3.37,3.37,0,0,0,72.84,41.42Z"/><polygon class="cls-1" points="13.01 55.42 8.1 55.43 8.1 83.85 14.01 83.85 14.01 71.03 13.01 71.03 13.01 55.42"/><path class="cls-1" d="M8.8,52.73H91.6a.37.37,0,0,0,.38-.37V18a.38.38,0,0,0-.38-.38H8.8a.37.37,0,0,0-.37.38V52.36A.36.36,0,0,0,8.8,52.73Zm.37-34.37H91.22V52h-82Z"/><path d="M13.38,46.67h27v-24h-27ZM35.68,26a2,2,0,1,1-2,2A2,2,0,0,1,35.68,26Zm0,6.59a2,2,0,1,1-2,2A2,2,0,0,1,35.68,32.63Zm0,6.59a2,2,0,1,1-2,2A2,2,0,0,1,35.68,39.22ZM27.56,26a2,2,0,1,1-2,2A2,2,0,0,1,27.56,26Zm0,6.59a2,2,0,1,1-2,2A2,2,0,0,1,27.56,32.63Zm0,6.59a2,2,0,1,1-2,2A2,2,0,0,1,27.56,39.22ZM17.88,26a2,2,0,1,1-2,2A2,2,0,0,1,17.88,26Zm0,6.59a2,2,0,1,1-2,2A2,2,0,0,1,17.88,32.63Zm0,6.59a2,2,0,1,1-2,2A2,2,0,0,1,17.88,39.22Z"/><path d="M91.22,18.36h-82V52H91.22ZM74.58,20.47h10.8V24H74.58Zm-13.32,0h10.8V24H61.26Zm-13.37,0h10.8V24H47.89Zm-6.52,26.7a.5.5,0,0,1-.5.5h-28a.5.5,0,0,1-.5-.5v-25a.5.5,0,0,1,.5-.5h28a.51.51,0,0,1,.5.5Zm5-8.44H86.9v.5H46.32ZM53.48,32a3.46,3.46,0,1,1,3.45,3.29A3.37,3.37,0,0,1,53.48,32ZM64.1,32a3.46,3.46,0,1,1,3.46,3.29A3.38,3.38,0,0,1,64.1,32Zm10.62,0a3.46,3.46,0,1,1,3.46,3.29A3.38,3.38,0,0,1,74.72,32ZM51.33,48a3.29,3.29,0,1,1,3.45-3.29A3.38,3.38,0,0,1,51.33,48Zm11,0a3.29,3.29,0,1,1,3.46-3.29A3.37,3.37,0,0,1,62.29,48Zm10.55,0a3.29,3.29,0,1,1,3.46-3.29A3.37,3.37,0,0,1,72.84,48Zm10.74,0A3.29,3.29,0,1,1,87,44.71,3.38,3.38,0,0,1,83.58,48ZM87.1,27.23H46.51v-.5H87.1Z"/><path d="M95.43,47.48V15.15H4.93v71.7H95.45V47.48ZM8.43,18a.37.37,0,0,1,.37-.38H91.6A.38.38,0,0,1,92,18V52.36a.37.37,0,0,1-.38.37H8.8a.36.36,0,0,1-.37-.37ZM14,83.85H8.1V55.43H13V71h1Zm9.86,0H17V71h1V55.42h4.9V71h1Zm9.88,0h-6.9V71h1V55.41h5.9Zm9.92,0H36.73V55.4h6V71h1Zm9.91,0H46.64V71h1V55.39h5V71h.94Zm10,0h-7V71h1V55.38h5V71h1Zm10,0h-7V71h1V55.37h6Zm10,0h-7V55.37h6V71h1Zm8.84,0H86.58V71h1V55.37h4.87Z"/><text x="0" y="115" fill="#000000" font-size="5px" font-weight="bold" font-family="'Helvetica Neue', Helvetica, Arial-Unicode, Arial, Sans-serif">Created by Jekaterine Marin</text><text x="0" y="120" fill="#000000" font-size="5px" font-weight="bold" font-family="'Helvetica Neue', Helvetica, Arial-Unicode, Arial, Sans-serif">from the Noun Project</text></svg>